<svg width="240" height="200" viewBox="0 0 240 200" fill="none" xmlns="http://www.w3.org/2000/svg">
<rect width="240" height="200" fill="#FFFCF5"/>
<path d="M132.679 17.8088L128.672 21.8152L129.483 22.6264C129.742 22.8842 129.88 23.2276 129.875 23.5938C129.869 23.9543 129.722 24.2958 129.461 24.5566L129.421 24.5965C127.189 26.8284 126.013 29.8913 126.11 33.2199C126.246 37.9064 124.193 42.3112 120.474 45.3065C115.159 49.5851 107.512 49.6727 102.29 45.512C99.0586 42.9378 97.1507 39.2468 96.918 35.1197C96.6807 30.9109 98.274 26.7677 101.29 23.7522C104.169 20.8732 108.127 19.2807 112.155 19.3633C115.559 19.455 118.709 18.2238 120.994 15.9387C121.244 15.6889 121.572 15.5635 121.899 15.5635C122.22 15.5635 122.539 15.6844 122.782 15.927L123.659 16.8038L127.666 12.7982C126.047 10.9885 126.134 8.16896 127.907 6.39561C128.837 5.46575 130.053 4.99985 131.262 4.99985C132.438 4.99985 133.606 5.44185 134.493 6.32816C135.371 7.20648 135.844 8.41419 135.818 9.65827C137.06 9.62226 138.269 10.1044 139.148 10.9835C140.945 12.7803 140.915 15.7355 139.08 17.5694C137.308 19.3416 134.487 19.4284 132.678 17.8098L132.679 17.8088ZM122.015 16.6944C121.948 16.6276 121.834 16.6337 121.762 16.7054C119.339 19.1284 116.046 20.4521 112.457 20.4521C112.349 20.4521 112.239 20.4506 112.13 20.4483C108.402 20.3728 104.729 21.849 102.058 24.5187C99.261 27.3159 97.783 31.1574 98.0033 35.0565C98.2182 38.8708 99.9813 42.2816 102.968 44.6607C107.795 48.5068 114.871 48.4219 119.793 44.4587C123.244 41.6801 125.15 37.5945 125.023 33.2513C124.92 29.6728 126.242 26.238 128.653 23.8276L128.693 23.7878C128.752 23.7279 128.787 23.6525 128.788 23.5755C128.789 23.5266 128.777 23.4561 128.716 23.3951L122.015 16.6944ZM138.379 11.7505C137.586 10.9575 136.44 10.6012 135.308 10.7941C135.13 10.8248 134.956 10.7676 134.831 10.6429C134.707 10.5182 134.651 10.3408 134.68 10.1668C134.874 9.03605 134.516 7.88745 133.723 7.0952C132.351 5.72186 130.084 5.75252 128.674 7.16268C127.264 8.57319 127.234 10.8382 128.606 12.21C128.663 12.2661 128.722 12.3177 128.794 12.3795C128.908 12.4777 128.977 12.6198 128.982 12.7707C128.988 12.9219 128.93 13.0683 128.823 13.1752L124.427 17.5709L127.903 21.0469L132.299 16.6504C132.406 16.5432 132.566 16.4935 132.716 16.5049C132.867 16.5106 133.02 16.5924 133.119 16.7069C133.165 16.7611 133.211 16.8153 133.262 16.8661C134.637 18.2391 136.902 18.2088 138.311 16.7994C139.722 15.3889 139.753 13.1239 138.379 11.7506L138.379 11.7505Z" fill="#E8BC90"/>
<path d="M121.213 36.0014C121.001 36.2137 120.657 36.2137 120.445 36.0014L118.997 34.5541L116.108 37.4438L118.759 40.095C118.971 40.3072 118.971 40.6511 118.759 40.8633C118.547 41.0756 118.203 41.0756 117.991 40.8633L115.339 38.2122L112.449 41.1022L113.897 42.5495C114.109 42.7617 114.109 43.1056 113.897 43.3178C113.684 43.5301 113.34 43.5301 113.128 43.3178L111.681 41.8706L110.234 43.3178C110.021 43.5301 109.678 43.5301 109.465 43.3178C109.253 43.1056 109.253 42.7617 109.465 42.5495L110.913 41.1022L108.023 38.2125L105.372 40.8637C105.159 41.076 104.816 41.076 104.603 40.8637C104.391 40.6515 104.391 40.3076 104.603 40.0954L107.255 37.4442L104.365 34.5541L102.917 36.0014C102.705 36.2137 102.361 36.2137 102.149 36.0014C101.937 35.7892 101.937 35.4453 102.149 35.2331L103.596 33.7858L102.149 32.3385C101.937 32.1262 101.937 31.7824 102.149 31.5701C102.255 31.4639 102.394 31.4109 102.533 31.4109C102.672 31.4109 102.811 31.464 102.918 31.5701L104.365 33.0174L107.255 30.1274L104.604 27.4762C104.391 27.2639 104.391 26.9201 104.604 26.7078C104.71 26.6016 104.849 26.5486 104.988 26.5486C105.127 26.5486 105.266 26.6017 105.372 26.7078L108.024 29.359L110.913 26.4694L109.466 25.0221C109.254 24.8098 109.254 24.466 109.466 24.2537C109.572 24.1479 109.711 24.0949 109.85 24.0949C109.989 24.0949 110.128 24.1479 110.234 24.2541L111.682 25.7014L113.129 24.2541C113.235 24.1479 113.374 24.0949 113.513 24.0949C113.652 24.0949 113.791 24.1479 113.897 24.2541C114.109 24.4663 114.109 24.8102 113.897 25.0224L112.45 26.4697L115.339 29.3594L117.99 26.7082C118.097 26.602 118.236 26.549 118.375 26.549C118.514 26.549 118.653 26.602 118.759 26.7082C118.971 26.9204 118.971 27.2643 118.759 27.4765L116.108 30.1277L118.998 33.0174L120.445 31.5701C120.551 31.4639 120.69 31.4109 120.829 31.4109C120.968 31.4109 121.108 31.4639 121.214 31.5701C121.426 31.7824 121.426 32.1262 121.214 32.3385L119.766 33.7858L121.214 35.233C121.425 35.4453 121.425 35.7891 121.213 36.0014L121.213 36.0014ZM111.681 40.3342L114.571 37.4442L111.682 34.5545L108.792 37.4445L111.681 40.3342ZM105.133 33.7861L108.023 36.6761L110.913 33.7861L108.023 30.8964L105.133 33.7861ZM111.681 27.2379L108.792 30.1276L111.681 33.0172L114.571 30.1276L111.681 27.2379ZM115.339 30.8959L112.45 33.7856L115.339 36.6752L118.229 33.7856L115.339 30.8959Z" fill="#E8BC90"/>
<path d="M101.354 80.0141H101.224C101.018 74.5507 96.6725 70.1389 91.2319 69.8192C90.1624 64.7774 85.6808 61.135 80.4969 61.135C75.3264 61.135 70.8278 64.7827 69.759 69.8192C64.319 70.1402 59.9745 74.5512 59.7683 80.0131H59.6535C59.3583 80.0131 59.119 80.2521 59.119 80.5477C59.119 87.9731 64.5108 94.159 71.5841 95.4063L71.5845 99.6048C71.5845 99.9001 71.8234 100.139 72.1191 100.139H88.8891C89.1844 100.139 89.4237 99.9004 89.4237 99.6048V95.4063C96.4967 94.1586 101.889 87.9731 101.889 80.5477C101.888 80.2528 101.649 80.0135 101.354 80.0135L101.354 80.0141ZM100.156 80.0141H97.7546C97.544 76.2516 94.4224 73.253 90.6036 73.253C86.7848 73.253 83.6632 76.2516 83.4526 80.0141H81.0515C81.2648 74.9302 85.4611 70.8564 90.6032 70.8564C95.7457 70.8568 99.942 74.9302 100.155 80.0141H100.156ZM94.0451 80.0141C93.8449 78.2934 92.3788 76.9532 90.6037 76.9532C88.8282 76.9532 87.3624 78.2934 87.1623 80.0141H84.5219C84.7306 76.841 87.3748 74.3218 90.6041 74.3218C93.8334 74.3218 96.4776 76.841 96.6863 80.0141H94.0451ZM92.9611 80.0141H88.2463C88.439 78.8857 89.419 78.022 90.6037 78.022C91.7884 78.0223 92.7681 78.8861 92.9611 80.0141V80.0141ZM84.4417 71.7671C83.8654 70.1172 82.2949 68.9705 80.5026 68.9705C78.7125 68.9705 77.1361 70.1216 76.5609 71.7738C75.9901 71.366 75.3795 71.0134 74.7332 70.7229C75.3732 68.0859 77.7605 66.1922 80.5001 66.1922C83.2459 66.1922 85.6254 68.0822 86.2662 70.7203C85.6209 71.0095 85.0114 71.3611 84.4418 71.767L84.4417 71.7671ZM80.5026 70.0394C81.968 70.0394 83.2324 71.0682 83.5367 72.4922C82.1518 73.7258 81.0891 75.3093 80.497 77.1087C79.9061 75.3123 78.8456 73.7309 77.4641 72.4985C77.7657 71.0727 79.0387 70.0393 80.5026 70.0393V70.0394ZM80.4967 62.2043C85.0967 62.2043 89.0802 65.3823 90.1314 69.8116C89.1364 69.8556 88.1762 70.03 87.27 70.3297C86.4651 67.2879 83.6917 65.1235 80.5 65.1235C77.3161 65.1235 74.5348 67.2924 73.7307 70.3323C72.8223 70.0311 71.8594 69.8555 70.8619 69.8115C71.9131 65.3867 75.9093 62.2043 80.4966 62.2043L80.4967 62.2043ZM70.3896 70.8568C75.5321 70.8568 79.7284 74.9306 79.9413 80.0145H77.4104C77.1998 76.252 74.0782 73.2534 70.2594 73.2534C66.4407 73.2534 63.319 76.252 63.1084 80.0145H60.8367C61.0503 74.9302 65.2466 70.8568 70.3893 70.8568H70.3896ZM73.7017 80.0141C73.5015 78.2934 72.0354 76.9532 70.2603 76.9532C68.4848 76.9532 67.019 78.2934 66.8189 80.0141H64.1785C64.3872 76.841 67.0314 74.3218 70.2607 74.3218C73.49 74.3218 76.1341 76.841 76.3428 80.0141H73.7017ZM72.6177 80.0141H67.9029C68.0956 78.8857 69.0756 78.022 70.2603 78.022C71.445 78.0223 72.4247 78.8861 72.6177 80.0141ZM88.3542 99.0716H72.653V95.5608C73.1656 95.6137 73.6856 95.6413 74.212 95.6413H86.7955C87.3218 95.6413 87.8419 95.6137 88.3544 95.5608L88.3542 99.0716ZM86.7953 94.5722H74.2118C66.6579 94.5722 60.4802 88.5691 60.1978 81.0831H100.808C100.527 88.5692 94.3488 94.5722 86.7953 94.5722V94.5722Z" fill="#E8BC90"/>
<path d="M64.3104 57.9223V61.2545C64.3104 61.5498 64.5493 61.7891 64.8449 61.7891C65.1402 61.7891 65.3795 61.5501 65.3795 61.2545V57.9223C65.3795 57.627 65.1405 57.3877 64.8449 57.3877C64.5497 57.3877 64.3104 57.6266 64.3104 57.9223Z" fill="#E8BC90"/>
<path d="M61.6326 63.5382C61.737 63.6426 61.8738 63.6948 62.0106 63.6948C62.1474 63.6948 62.2842 63.6426 62.3886 63.5382C62.5973 63.3295 62.5973 62.9914 62.3886 62.7826L60.0323 60.4263C59.8236 60.2176 59.4854 60.2176 59.2767 60.4263C59.0679 60.6351 59.0679 60.9732 59.2767 61.182L61.6326 63.5382Z" fill="#E8BC90"/>
<path d="M95.6212 57.9223V61.2545C95.6212 61.5498 95.8601 61.7891 96.1558 61.7891C96.451 61.7891 96.6903 61.5501 96.6903 61.2545V57.9223C96.6903 57.627 96.4514 57.3877 96.1558 57.3877C95.8605 57.3877 95.6212 57.6266 95.6212 57.9223Z" fill="#E8BC90"/>
<path d="M100.968 60.4256L98.612 62.7819C98.4032 62.9906 98.4032 63.3288 98.612 63.5375C98.7164 63.6419 98.8532 63.6941 98.99 63.6941C99.1268 63.6941 99.2636 63.6419 99.368 63.5375L101.724 61.1812C101.933 60.9725 101.933 60.6344 101.724 60.4256C101.515 60.2169 101.177 60.2169 100.968 60.4256H100.968Z" fill="#E8BC90"/>
<path d="M24.4711 47.2049C23.6124 46.2394 22.4365 45.4822 20.9705 44.9578C14.9209 42.7936 10.4122 46.5903 6.3509 57.2686C3.131 65.7348 2.35701 72.5652 4.1714 76.5005C4.75884 77.7751 5.60975 78.7365 6.70947 79.3714C7.02808 79.5553 7.36747 79.7117 7.72728 79.8403C8.15992 79.9951 8.60296 80.0991 9.04441 80.1548C9.54402 80.9507 10.2073 81.6002 11.0435 82.083C11.8991 82.577 12.8153 82.8267 13.7787 82.852C13.7838 82.8599 13.7846 82.8691 13.7902 82.8763C14.0661 83.2454 14.3892 83.5885 14.7522 83.8965C15.0431 84.1437 15.3482 84.3594 15.6668 84.5434C16.7662 85.1781 18.0248 85.4341 19.4221 85.306C23.7375 84.9094 29.2656 80.824 34.9877 73.8025C42.2039 64.9462 43.2378 59.1427 38.3394 54.9861C37.12 53.9514 35.8426 53.3023 34.5427 53.0553C34.2365 51.5601 33.5199 50.3082 32.3952 49.2718L33.7081 47.5195C33.7213 47.5021 33.7329 47.4842 33.744 47.465C34.391 46.342 34.0068 44.9029 32.886 44.2558C31.7653 43.6088 30.3269 43.9956 29.679 45.1177C29.6687 45.1356 29.6596 45.1536 29.6511 45.172L28.7733 47.183C27.3294 46.7346 25.9032 46.7361 24.471 47.2049L24.4711 47.2049ZM8.09469 78.8115C6.7782 78.3413 5.79254 77.409 5.16306 76.0428C3.49689 72.429 4.3025 65.7274 7.37166 57.6563C11.2203 47.5358 15.1778 44.0451 20.6022 45.9857C21.7612 46.3998 22.6655 46.9549 23.3766 47.6548C20.3563 49.1416 17.2858 52.7009 13.953 58.4735C8.77868 67.4357 6.89227 74.6587 8.44038 78.9142C8.32512 78.8815 8.20913 78.8524 8.09471 78.8114L8.09469 78.8115ZM37.6327 55.8181C42.0251 59.5454 40.9808 64.7173 34.1409 73.1114C28.686 79.8052 23.2846 83.8538 19.322 84.2173C17.823 84.355 16.5229 83.9673 15.4584 83.0628C15.3407 82.9628 15.2325 82.8554 15.1254 82.747C19.5771 81.9383 24.8742 76.696 30.0345 67.7583C33.3562 62.0049 34.9036 57.5773 34.694 54.2217C35.6931 54.4784 36.6599 54.9931 37.6325 55.8185L37.6327 55.8181ZM30.6391 45.6388C30.992 45.0566 31.7491 44.8596 32.3401 45.2009C32.9309 45.5419 33.1387 46.2948 32.8123 46.8914L31.5452 48.5826C31.2788 48.3927 30.9992 48.2098 30.6996 48.0368C30.3969 47.862 30.0954 47.71 29.7948 47.5733L30.6391 45.6388ZM30.1538 48.9825C35.127 51.8538 34.8085 57.3057 29.089 67.212C24.0595 75.9235 16.8212 84.1568 11.5897 81.1364C6.35819 78.116 9.86936 67.7308 14.8989 59.0193C20.6183 49.1131 25.1806 46.1112 30.1538 48.9825Z" fill="#E8BC90"/>
<path d="M27.8511 53.2751C29.5363 54.248 30.9323 56.2959 26.7381 63.5605C26.5873 63.8218 26.6764 64.1556 26.938 64.3066C27.1992 64.4574 27.5332 64.3679 27.6841 64.1067C30.1414 59.8505 32.4431 54.6649 28.3976 52.3292C28.1364 52.1784 27.8024 52.2679 27.6515 52.5291C27.5004 52.7902 27.5899 53.1242 27.8511 53.275L27.8511 53.2751Z" fill="#E8BC90"/>
<path d="M218.513 115.157L216.157 117.513C215.948 117.722 215.948 118.06 216.157 118.268C216.261 118.373 216.398 118.425 216.535 118.425C216.671 118.425 216.808 118.373 216.913 118.268L219.269 115.912C219.478 115.703 219.478 115.365 219.269 115.157C219.06 114.948 218.722 114.948 218.513 115.157H218.513Z" fill="#E8BC90"/>
<path d="M210.513 112.157L208.157 114.513C207.948 114.722 207.948 115.06 208.157 115.268C208.261 115.373 208.398 115.425 208.535 115.425C208.671 115.425 208.808 115.373 208.913 115.268L211.269 112.912C211.478 112.703 211.478 112.365 211.269 112.157C211.06 111.948 210.722 111.948 210.513 112.157H210.513Z" fill="#E8BC90"/>
<path d="M221.513 47.1566L219.157 49.5128C218.948 49.7216 218.948 50.0597 219.157 50.2685C219.261 50.3728 219.398 50.425 219.535 50.425C219.671 50.425 219.808 50.3728 219.913 50.2685L222.269 47.9122C222.478 47.7034 222.478 47.3653 222.269 47.1566C222.06 46.9478 221.722 46.9478 221.513 47.1566H221.513Z" fill="#E8BC90"/>
<path d="M172.808 104.268C170.773 104.672 168.842 104.155 167.657 102.888L167.28 102.471C167.055 102.238 166.7 102.172 166.359 102.368C166.019 102.565 165.879 102.872 165.954 103.237L166.118 103.913C166.534 105.577 165.978 107.441 164.625 108.947C161.111 112.835 160.321 118.143 162.619 122.122C164.013 124.537 166.368 126.261 169.314 126.964C172.01 127.629 174.932 127.348 177.591 126.22C177.644 126.235 177.713 126.195 177.747 126.176L177.849 126.117L177.984 126.038L177.012 127.416C176.881 127.583 176.931 127.826 177.097 127.957C177.244 128.053 177.385 128.063 177.521 127.984C177.555 127.965 177.623 127.925 177.637 127.872L178.712 126.435L178.76 128.403C178.756 128.632 178.942 128.796 179.171 128.8C179.258 128.795 179.292 128.775 179.36 128.736C179.496 128.658 179.559 128.531 179.568 128.389L179.494 125.984L180.731 128.126C180.849 128.33 181.064 128.388 181.268 128.27C181.472 128.152 181.53 127.938 181.412 127.733L180.175 125.591L182.221 126.858C182.348 126.921 182.489 126.93 182.625 126.851C182.693 126.812 182.727 126.792 182.776 126.719C182.887 126.519 182.837 126.276 182.637 126.164L180.957 125.139L182.738 124.927C182.792 124.941 182.86 124.902 182.894 124.882C183.03 124.804 183.127 124.657 183.082 124.501C183.052 124.292 182.866 124.127 182.657 124.157L180.909 124.35C185.657 120.793 187.603 114.817 185.473 110.107C183.442 105.566 178.321 103.216 172.807 104.269L172.808 104.268ZM180.585 123.63C180.517 123.67 180.449 123.709 180.401 123.782C181.14 114.694 174.704 108.025 171.79 105.491C174.404 106.249 179.337 108.117 181.484 112.228C183.096 115.333 182.796 119.134 180.633 123.557C180.565 123.596 180.565 123.596 180.585 123.63L180.585 123.63ZM177.456 125.437C172.632 125.093 169.225 123.433 167.361 120.518C164.84 116.623 165.629 111.315 166.28 108.672C167.018 112.463 169.576 121.371 177.85 125.255C177.714 125.333 177.558 125.378 177.456 125.437L177.456 125.437ZM169.986 105.036C170.778 105.622 180.855 113.181 179.536 124.327L179.468 124.366L167.686 103.96C168.351 104.483 169.113 104.86 169.986 105.036L169.986 105.036ZM167.006 104.353L178.807 124.793L178.739 124.832L178.72 124.798C168.046 120.213 166.828 106.95 166.783 106.794L166.764 106.76C166.999 105.99 167.107 105.156 167.006 104.353L167.006 104.353ZM163.299 121.73C161.159 118.023 161.936 113.085 165.217 109.422C165.251 109.402 165.265 109.349 165.299 109.329C165.147 110.007 165.033 110.753 164.944 111.62C164.552 115.338 165.131 118.541 166.681 120.911C168.466 123.689 171.489 125.391 175.715 126.034C173.638 126.599 171.495 126.657 169.461 126.199C166.784 125.567 164.595 123.974 163.299 121.73L163.299 121.73ZM184.754 110.431C186.481 114.286 185.27 119.021 181.953 122.387C183.577 118.366 183.663 114.825 182.13 111.855C180.819 109.347 178.388 107.259 174.991 105.774C174.323 105.48 173.674 105.22 173.064 105.027C178.199 104.103 182.885 106.25 184.754 110.431L184.754 110.431Z" fill="#E8BC90"/>
<path d="M7.68915 136.835C10.0285 139.174 13.1015 140.343 16.1767 140.343C19.2578 140.343 22.3416 139.169 24.6891 136.822C27.4951 134.016 28.738 130.01 28.013 126.108C27.518 123.444 27.7484 120.881 28.6792 118.696C31.0174 113.209 29.5403 106.903 25.0032 103.004C19.7488 98.4893 11.7832 98.5096 7.24471 103.051C-9.2277 119.537 7.51827 136.665 7.68909 136.836L7.68915 136.835ZM8.03469 103.839C12.1687 99.7023 19.4546 99.7066 24.276 103.85C28.4427 107.431 29.7996 113.222 27.6528 118.26C26.6356 120.646 26.3807 123.431 26.9158 126.312C27.5734 129.853 26.4461 133.487 23.9001 136.033C19.6442 140.288 12.7262 140.295 8.47764 136.047C8.43679 136.006 4.36621 131.89 2.28744 125.867C-0.483465 117.839 1.45005 110.429 8.03406 103.839L8.03469 103.839Z" fill="#E8BC90"/>
<path d="M16.2092 135.165C18.1707 135.165 20.0615 134.403 21.6021 132.863C23.7746 130.69 24.8275 127.46 24.2847 124.633C23.9127 122.694 23.629 120.426 24.9843 118.066C27.0603 114.449 26.0342 110.074 22.3702 106.919C18.4039 103.503 12.4177 103.486 9.02677 106.88C-3.19403 119.111 9.38242 131.969 9.51122 132.098C11.5472 134.134 13.9262 135.165 16.2092 135.165L16.2092 135.165ZM9.81628 107.669C11.293 106.191 13.3355 105.454 15.4507 105.454C17.6147 105.454 19.8556 106.226 21.6424 107.764C24.9317 110.597 25.8414 114.331 24.0168 117.51C22.4716 120.202 22.7794 122.707 23.1892 124.844C23.6635 127.317 22.7312 130.156 20.8131 132.074C17.9441 134.943 13.6206 134.628 10.2997 131.309C10.2694 131.279 7.23887 128.208 5.68946 123.761C3.63878 117.876 5.02679 112.462 9.81572 107.668L9.81628 107.669Z" fill="#E8BC90"/>
<path d="M13.8165 124.486C13.1748 125.127 12.8211 125.981 12.8211 126.888C12.8211 127.796 13.1748 128.649 13.8165 129.291C14.4578 129.932 15.3115 130.286 16.2189 130.286C17.1263 130.286 17.9797 129.932 18.6213 129.291C19.263 128.649 19.6163 127.796 19.6163 126.888C19.6163 125.981 19.263 125.127 18.6213 124.486C17.2964 123.161 15.141 123.161 13.8165 124.486V124.486ZM17.8326 128.502C17.4014 128.933 16.8283 129.17 16.2189 129.17C15.6092 129.17 15.0364 128.933 14.6052 128.502C14.1741 128.071 13.9367 127.498 13.9367 126.888C13.9367 126.278 14.1741 125.706 14.6052 125.274C15.05 124.83 15.6345 124.607 16.2189 124.607C16.8034 124.607 17.3878 124.83 17.8326 125.274C18.2633 125.705 18.5007 126.278 18.5007 126.888C18.5007 127.498 18.2637 128.071 17.8326 128.502Z" fill="#E8BC90"/>
<path d="M7.79273 115.952C7.93553 115.952 8.07834 115.897 8.18729 115.788L15.1062 108.869C15.3242 108.651 15.3242 108.298 15.1062 108.08C14.8883 107.863 14.5354 107.863 14.3175 108.08L7.39854 114.999C7.18063 115.217 7.18063 115.57 7.39854 115.788C7.5071 115.897 7.64991 115.952 7.79271 115.952H7.79273Z" fill="#E8BC90"/>
<path d="M19.7575 108.756C19.5396 108.539 19.1867 108.539 18.9688 108.756L7.23905 120.487C7.02115 120.705 7.02115 121.058 7.23905 121.276C7.34801 121.385 7.49081 121.439 7.63362 121.439C7.77643 121.439 7.91924 121.385 8.02819 121.276L19.7579 109.545C19.9754 109.327 19.9754 108.974 19.7575 108.756H19.7575Z" fill="#E8BC90"/>
<path d="M21.9451 111.897C21.7272 111.679 21.3743 111.679 21.1564 111.897L8.63072 124.423C8.41281 124.641 8.41281 124.994 8.63072 125.212C8.73968 125.321 8.88248 125.375 9.02528 125.375C9.16809 125.375 9.3109 125.321 9.41985 125.212L21.9455 112.686C22.163 112.469 22.163 112.115 21.9451 111.897H21.9451Z" fill="#E8BC90"/>
<path d="M43.3274 120.67C43.8527 119.233 43.1193 117.633 41.6846 117.096C40.9865 116.834 40.2273 116.861 39.5487 117.17C38.8763 117.477 38.3619 118.025 38.0984 118.713C36.7163 118.61 35.4076 119.419 34.9065 120.757C34.7672 121.13 34.7006 121.522 34.7076 121.917C33.7021 122.161 32.8655 122.887 32.4943 123.88C32.3258 124.33 32.2631 124.806 32.3075 125.278C31.4417 125.655 30.7537 126.369 30.4195 127.262C30.0417 128.272 30.1455 129.369 30.6888 130.279C30.4856 130.547 30.3234 130.842 30.2051 131.159C29.4556 133.162 30.7401 134.902 31.772 136.3C32.4989 137.285 33.1854 138.215 32.9335 138.887V138.888L31.9393 141.544C31.8312 141.833 31.9779 142.154 32.2662 142.262C32.3308 142.287 32.3965 142.298 32.4615 142.298C32.6872 142.298 32.9001 142.159 32.9841 141.936L33.9783 139.278C34.2301 138.606 35.3582 138.356 36.5528 138.09C38.2493 137.712 40.3608 137.243 41.1102 135.241C41.2288 134.923 41.3005 134.594 41.323 134.258C42.3293 133.929 43.1285 133.17 43.5064 132.161C43.841 131.267 43.7908 130.276 43.385 129.423C43.729 129.096 43.9939 128.697 44.162 128.247C44.5337 127.254 44.3796 126.157 43.7811 125.313C44.0453 125.02 44.2531 124.68 44.3924 124.308C44.8936 122.97 44.4356 121.495 43.3274 120.67L43.3274 120.67ZM43.3484 123.917C43.2138 124.276 42.9799 124.59 42.6725 124.824C42.543 124.922 42.4628 125.073 42.4535 125.235C42.4441 125.398 42.506 125.557 42.6231 125.669C43.2091 126.235 43.4037 127.094 43.1181 127.856C42.9702 128.252 42.7064 128.588 42.3546 128.826C42.1009 128.999 42.0344 129.344 42.2052 129.598C42.6352 130.24 42.7313 131.051 42.4624 131.77C42.1675 132.558 41.4951 133.122 40.6643 133.279C40.3876 133.331 40.1934 133.581 40.2109 133.862C40.2327 134.202 40.1837 134.534 40.0658 134.85C39.5284 136.285 37.8926 136.649 36.3112 137.001C35.7326 137.13 35.1718 137.26 34.6679 137.438L36.1513 133.474L38.6572 132.331C38.9374 132.203 39.0611 131.872 38.9331 131.592C38.8055 131.311 38.4751 131.188 38.1942 131.316L36.7046 131.995L37.7506 129.2L40.2565 128.057C40.5367 127.929 40.6604 127.599 40.5324 127.318C40.4048 127.038 40.0744 126.913 39.7934 127.042L38.3039 127.721L39.3849 124.833C39.4931 124.544 39.3464 124.223 39.0581 124.115C38.7697 124.008 38.4483 124.153 38.3401 124.442L37.2591 127.33L36.5813 125.84C36.4536 125.559 36.1217 125.434 35.8427 125.563C35.5625 125.691 35.438 126.021 35.566 126.302L36.7057 128.808L35.6598 131.603L34.9819 130.114C34.8543 129.833 34.5228 129.708 34.2434 129.837C33.9632 129.964 33.8387 130.295 33.9667 130.575L35.1064 133.082L33.6226 137.046C33.3592 136.582 33.0218 136.115 32.6697 135.637C31.7078 134.334 30.7127 132.986 31.2502 131.55C31.3677 131.235 31.549 130.952 31.7883 130.71C31.9864 130.51 32.0039 130.194 31.8296 129.972C31.3062 129.308 31.1692 128.441 31.4642 127.653C31.7331 126.934 32.3381 126.385 33.0833 126.184C33.3791 126.104 33.5549 125.8 33.4767 125.503C33.3689 125.093 33.3899 124.667 33.5382 124.27C33.8238 123.507 34.5336 122.988 35.3468 122.946C35.5095 122.938 35.6604 122.859 35.7597 122.73C35.8593 122.602 35.8978 122.435 35.8647 122.276C35.7861 121.897 35.8161 121.507 35.9503 121.147C36.2554 120.333 37.0255 119.82 37.8575 119.82C38.0248 119.82 38.1945 119.84 38.3633 119.883C38.5135 119.92 38.6742 119.896 38.8058 119.81C38.9365 119.726 39.0256 119.59 39.0513 119.436C39.07 119.326 39.0976 119.222 39.1342 119.125C39.2914 118.705 39.6023 118.371 40.0101 118.185C40.4179 117.999 40.8728 117.983 41.2922 118.14C42.158 118.464 42.5985 119.433 42.274 120.3C42.2374 120.397 42.1896 120.494 42.132 120.589C42.0506 120.722 42.0288 120.883 42.0713 121.033C42.1141 121.182 42.2176 121.308 42.3569 121.378C43.2884 121.847 43.7141 122.938 43.3483 123.917L43.3484 123.917Z" fill="#E8BC90"/>
<path d="M33.1678 110.687C33.3806 111.196 33.781 111.585 34.295 111.784L35.255 112.155C35.4908 112.246 35.7351 112.292 35.9795 112.291C36.2682 112.291 36.5566 112.228 36.8274 112.102C37.3278 111.868 37.7014 111.451 37.8792 110.928L38.7906 108.25L40.5646 108.936C41.9557 109.475 43.5259 108.779 44.0648 107.386L44.1204 107.242C44.829 105.41 44.7352 103.351 43.8636 101.591C42.9811 99.8099 41.4382 98.5227 39.5179 97.9658C36.0671 96.9646 32.3176 98.8814 30.9845 102.329C30.7234 103.003 30.7409 103.739 31.0331 104.4C31.3253 105.062 31.8576 105.57 32.5316 105.83L34.306 106.516L33.1787 109.111C32.9589 109.617 32.9546 110.177 33.1678 110.687L33.1678 110.687ZM34.2021 109.555L35.5609 106.428C35.6216 106.289 35.6228 106.131 35.564 105.991C35.5053 105.851 35.392 105.74 35.2504 105.686L32.9339 104.79C32.5382 104.637 32.2253 104.338 32.0538 103.95C31.8818 103.561 31.8716 103.128 32.0253 102.731C32.9507 100.338 35.2457 98.8164 37.6446 98.8164C38.1649 98.8164 38.6902 98.8876 39.2077 99.0382C40.8238 99.5063 42.1222 100.588 42.8639 102.086C43.597 103.566 43.676 105.299 43.0802 106.84L43.0246 106.984C42.7075 107.802 41.7845 108.21 40.9677 107.895L38.6513 107C38.5093 106.945 38.3513 106.95 38.2139 107.015C38.0766 107.079 37.9711 107.197 37.9221 107.34L36.8236 110.568C36.7446 110.801 36.5785 110.986 36.3559 111.09C36.1345 111.194 35.8866 111.202 35.6582 111.114L34.6978 110.743C34.4698 110.655 34.292 110.482 34.1974 110.256C34.1025 110.03 34.104 109.781 34.2021 109.555L34.2021 109.555Z" fill="#E8BC90"/>
<path d="M131.687 151.994H130.644C130.754 151.116 130.863 150.237 130.863 149.359C130.863 139.039 122.409 130.585 111.979 130.585C108.191 130.585 104.568 131.683 101.439 133.769C101.275 133.494 101.11 133.165 101 132.836C100.89 132.561 100.725 132.397 100.451 132.287C100.231 132.177 99.9569 132.177 99.6824 132.232L99.463 132.287L97.4867 126.962C98.0906 126.633 98.6397 126.139 98.9139 125.48C99.2432 124.711 99.2984 123.888 99.0238 123.064C98.42 121.417 96.6083 120.594 95.0166 121.198C94.3028 121.472 93.699 122.021 93.3149 122.68C92.6012 122.405 91.7778 122.405 91.0641 122.625C89.4172 123.229 88.5939 125.041 89.1978 126.633C89.7469 128.115 91.3387 128.993 92.8757 128.609L94.852 133.934L94.5774 134.043C94.358 134.153 94.1382 134.318 94.0283 134.537C93.9184 134.757 93.9184 135.031 93.9736 135.251C94.5774 136.898 94.4675 138.71 93.5891 140.356C92.546 142.442 92.3814 144.913 93.2046 147.108C93.9732 149.249 95.6201 150.951 97.6511 151.884H93.3692C93.0399 151.884 92.8201 152.104 92.8201 152.433C92.8201 154.574 94.577 156.386 96.7726 156.386H100.341V158.252C100.341 158.581 100.56 158.801 100.89 158.801H124.165C124.495 158.801 124.714 158.582 124.714 158.252L124.715 156.44H128.338C130.479 156.44 132.29 154.684 132.29 152.488C132.236 152.213 132.016 151.994 131.687 151.994L131.687 151.994ZM93.6993 127.785C93.6445 127.621 93.5346 127.511 93.3699 127.456C93.2053 127.401 93.0406 127.401 92.9307 127.456C92.876 127.456 92.876 127.511 92.8208 127.511C91.7777 127.895 90.57 127.346 90.186 126.303C89.8015 125.26 90.3506 124.052 91.3937 123.668C91.9975 123.449 92.7112 123.504 93.26 123.888C93.4247 123.997 93.5893 123.997 93.754 123.942C93.9186 123.888 94.0285 123.723 94.0833 123.558C94.2479 122.954 94.7419 122.405 95.3458 122.186C96.3889 121.801 97.5966 122.35 97.9806 123.393C98.1453 123.887 98.1453 124.436 97.9259 124.93C97.7065 125.424 97.2673 125.809 96.7729 125.973C96.7181 125.973 96.7181 125.973 96.663 126.028C96.4983 126.083 96.3884 126.193 96.3337 126.303C96.2789 126.413 96.2789 126.577 96.3337 126.742L98.4746 132.616L95.8945 133.549L93.6993 127.785ZM94.3031 146.834C93.5894 144.912 93.6993 142.827 94.6324 140.96C95.5656 139.038 95.7302 137.008 95.1264 135.086L99.3534 133.549L100.012 133.329C100.726 135.141 102.208 136.678 104.129 137.447C106.325 138.38 107.917 140.191 108.521 142.552C109.344 145.846 107.698 149.359 104.678 150.896C102.757 151.884 100.616 151.939 98.6397 151.17C96.554 150.402 95.0169 148.81 94.3032 146.834L94.3031 146.834ZM105.063 151.884C108.576 150.127 110.442 146.066 109.509 142.278C108.85 139.588 107.039 137.502 104.513 136.459C103.526 136.074 102.702 135.471 102.098 134.702C105.062 132.726 108.466 131.683 112.034 131.683C121.86 131.683 129.82 139.588 129.82 149.359C129.82 150.237 129.765 151.17 129.601 151.994L104.788 151.994C104.843 151.939 104.953 151.939 105.063 151.884L105.063 151.884ZM123.617 157.813H101.494V156.441H123.672L123.672 157.813H123.617ZM128.338 155.343H96.7734C95.401 155.343 94.248 154.355 93.9738 153.037H131.083C130.864 154.41 129.711 155.343 128.338 155.343H128.338Z" fill="#E8BC90"/>
<path d="M139.687 124.685C140.176 123.609 140.088 122.319 139.451 121.233L137.219 117.429C137.53 117.155 137.756 116.786 137.929 116.247C138.405 114.762 138.009 113.149 136.893 112.041L133.836 109.001C132.642 107.814 130.837 107.454 129.341 108.105C128.961 108.271 128.68 108.472 128.462 108.724L124.679 106.534C123.59 105.905 122.303 105.827 121.232 106.326C120.598 106.622 120.18 107.024 119.955 107.555L119.486 108.66L116.953 107.896C116.511 107.762 116.09 107.716 115.707 107.761C114.2 107.93 112.896 109.196 112.033 111.325C111.941 111.551 112.048 111.809 112.272 111.905L117.361 114.072C117.305 115.033 117.769 115.989 118.624 116.51L121.724 118.4C121.508 119.069 121.668 119.82 122.191 120.339L125.686 123.814C126.055 124.181 126.539 124.369 127.026 124.369C127.228 124.369 127.43 124.335 127.625 124.27L129.549 127.384C130.044 128.184 130.917 128.64 131.815 128.64C131.872 128.64 131.929 128.635 131.986 128.631L134.196 133.73C134.269 133.899 134.433 134 134.606 134C134.663 134 134.721 133.989 134.778 133.965C136.894 133.083 138.146 131.765 138.302 130.254C138.343 129.868 138.294 129.449 138.157 129.006L137.37 126.457L138.472 125.976C139 125.745 139.398 125.323 139.687 124.685L139.687 124.685ZM117.566 113.187L113.036 111.258C113.521 110.209 114.421 108.806 115.806 108.65C116.071 108.62 116.37 108.655 116.695 108.753L119.134 109.488L117.566 113.187ZM118.384 113.546L120.777 107.905C120.914 107.582 121.179 107.338 121.61 107.137C122.416 106.762 123.395 106.825 124.232 107.309L127.932 109.45L122.162 117.62L119.088 115.746C118.347 115.294 118.044 114.348 118.384 113.546L118.384 113.546ZM126.315 123.179H126.315L122.82 119.704C122.468 119.354 122.42 118.804 122.708 118.397L129.069 109.389C129.203 109.2 129.396 109.057 129.698 108.926C130.081 108.759 130.49 108.678 130.902 108.678C131.738 108.678 132.579 109.012 133.207 109.637L136.264 112.676C137.14 113.547 137.452 114.81 137.078 115.974C136.939 116.408 136.782 116.664 136.553 116.83L127.619 123.281C127.216 123.573 126.667 123.53 126.315 123.18L126.315 123.179ZM137.303 129.271C137.404 129.597 137.441 129.897 137.413 130.162C137.269 131.551 135.878 132.465 134.836 132.961L132.868 128.421L136.545 126.817L137.303 129.271ZM132.508 127.601C131.71 127.948 130.766 127.653 130.309 126.913L128.398 123.821L136.5 117.97L138.68 121.686C139.17 122.521 139.242 123.503 138.874 124.315C138.677 124.748 138.436 125.015 138.115 125.156L132.508 127.601Z" fill="#E8BC90"/>
<path d="M230.501 60.8939C230.441 60.7808 230.344 60.6906 230.226 60.6385C217.698 55.0906 209.455 65.4055 209.408 65.4693C209.372 65.5078 207.994 66.9957 206.426 69.4935C200.022 69.8717 196.805 74.2978 195.912 76.893C195.407 78.3637 195.468 79.548 196.076 80.0626C196.215 80.1805 196.455 80.3229 196.796 80.3229C197.019 80.3229 197.285 80.2623 197.596 80.0935C199.405 79.1093 201.407 78.9837 202.426 78.9938C201.864 81.5317 201.654 84.3062 202.088 87.2155C200.976 86.7342 199.062 86.01 196.848 85.614C192.199 84.7826 188.494 85.8342 186.134 88.6533C185.946 88.8787 185.957 89.21 186.161 89.4214C186.387 89.6548 191.49 94.8738 196.652 94.3741C196.147 99.5177 201.391 104.6 201.626 104.825C201.737 104.932 201.88 104.986 202.023 104.986C202.154 104.986 202.284 104.942 202.391 104.853C205.222 102.502 206.277 98.8099 205.443 94.1777C205.046 91.9751 204.32 90.07 203.837 88.9614C206.862 89.4106 209.742 89.1748 212.362 88.57C212.381 89.555 212.276 91.6009 211.258 93.4566C210.83 94.2362 211.091 94.7387 211.285 94.9693C211.568 95.3058 212.057 95.4759 212.686 95.4759C213.2 95.4759 213.808 95.3628 214.474 95.1342C217.104 94.2334 221.613 90.9732 221.911 84.4666C224.253 82.9751 225.638 81.6993 225.679 81.6603C235.954 71.4902 230.557 60.9987 230.501 60.894L230.501 60.8939ZM229.569 61.6058C230.186 62.9422 233.764 71.806 225.113 80.5929C213.64 78.1885 210.802 67.7938 210.407 66.0618C211.465 64.798 218.657 56.9011 229.57 61.6052L229.569 61.6058ZM197.046 79.0836C196.897 79.1646 196.82 79.1715 196.815 79.1803C196.711 79.06 196.586 78.3304 197.09 77.0238C198.103 74.3916 200.942 71.2838 205.701 70.7063C204.578 72.6699 203.447 75.0971 202.705 77.848C201.663 77.8079 199.263 77.8757 197.046 79.0837L197.046 79.0836ZM202.053 103.617C200.824 102.312 197.004 97.8582 197.905 93.8098C197.948 93.6177 197.89 93.4172 197.75 93.2784C197.642 93.1693 197.495 93.1096 197.343 93.1096C197.302 93.1096 197.26 93.114 197.219 93.1228C193.166 94.0164 188.688 90.2203 187.371 88.9939C192.189 83.9585 201.107 87.998 202.418 88.6329C203.058 89.9399 207.117 98.8159 202.053 103.617L202.053 103.617ZM203.336 87.7132C202.75 84.5243 202.995 81.4875 203.66 78.7502C203.701 78.6813 203.732 78.6043 203.741 78.5192C203.744 78.4916 203.735 78.4671 203.734 78.4406C205.113 73.0608 208.087 68.8974 209.501 67.1365C210.399 70.2568 213.79 78.9704 224.06 81.528C221.483 83.6018 213.12 89.5031 203.336 87.7127L203.336 87.7132ZM214.375 93.9465C213.018 94.4719 212.27 94.3335 212.179 94.2577C212.179 94.2565 212.172 94.1811 212.267 94.0086C213.517 91.7303 213.551 89.2588 213.505 88.2763C216.292 87.5006 218.744 86.3388 220.703 85.2014C220.183 90.0253 217.036 92.9154 214.375 93.9465L214.375 93.9465Z" fill="#E8BC90"/>
<path d="M219.207 69.7268C219.355 69.7268 219.502 69.6706 219.614 69.5579C219.839 69.3325 219.838 68.9691 219.613 68.745C219.286 68.4189 219.105 67.9861 219.105 67.5261C219.105 67.0697 219.284 66.6406 219.607 66.3181C220.278 65.6499 221.373 65.6527 222.05 66.3257C222.275 66.5507 222.639 66.5487 222.862 66.3233C223.087 66.0983 223.085 65.7345 222.86 65.5104C221.738 64.3934 219.914 64.389 218.795 65.5039C218.254 66.0434 217.955 66.7613 217.955 67.5261C217.955 68.2937 218.256 69.0156 218.801 69.5591C218.913 69.6714 219.06 69.7267 219.207 69.7267L219.207 69.7268Z" fill="#E8BC90"/>
<path d="M69.3109 168.405C68.9697 169.039 68.8027 169.761 68.8481 170.494C68.9165 171.61 69.4626 172.645 70.3448 173.332L88.3232 187.347C89.7456 188.455 91.779 188.329 93.0539 187.054C94.3292 185.779 94.455 183.745 93.3463 182.324L79.332 164.345C78.6448 163.462 77.6101 162.917 76.4935 162.848C75.73 162.801 74.979 162.985 74.3262 163.356C74.8403 161.038 73.8726 158.428 72.9945 156.068C72.8158 155.588 72.6404 155.118 72.4825 154.662C72.4164 154.471 72.2459 154.337 72.046 154.318C71.8457 154.299 71.651 154.397 71.5511 154.571C71.5109 154.639 70.6195 156.185 69.697 159.266C68.2904 158.407 66.3519 157.59 64.2629 157.796C64.0188 157.82 63.8249 158.014 63.8004 158.259C63.5917 160.379 64.4317 162.342 65.3151 163.766C62.4258 164.57 60.6793 165.519 60.6007 165.561C60.422 165.658 60.3177 165.853 60.3348 166.055C60.3515 166.259 60.486 166.433 60.6785 166.5C61.1691 166.671 61.6784 166.867 62.2005 167.067C64.5117 167.954 67.0629 168.925 69.3108 168.405L69.3109 168.405ZM74.1676 175.005L81.0052 168.168L84.5974 172.776L78.7759 178.597L74.1676 175.005ZM79.5951 179.236L85.2359 173.595L88.8281 178.203L84.2035 182.828L79.5951 179.236ZM85.0228 183.466L89.4667 179.023L92.5332 182.957C93.3226 183.969 93.2331 185.417 92.3252 186.325C91.4176 187.232 89.9695 187.322 88.9572 186.533L85.0228 183.466ZM70.7137 168.222L72.4849 166.451C72.4915 166.444 72.4977 166.438 72.5043 166.432C72.5099 166.426 72.5152 166.42 72.5205 166.415L74.2218 164.714C74.8043 164.131 75.6094 163.827 76.4308 163.877C77.2522 163.928 78.0139 164.329 78.5195 164.979L80.367 167.349L73.3494 174.367L70.9793 172.52C70.3303 172.013 69.9288 171.252 69.8775 170.431C69.8269 169.609 70.1317 168.804 70.7138 168.222L70.7137 168.222ZM62.5703 166.105C62.4394 166.055 62.309 166.005 62.1796 165.956C63.0732 165.57 64.4819 165.033 66.2658 164.582C66.4297 164.54 66.5645 164.42 66.6224 164.262C66.6819 164.104 66.6596 163.926 66.5624 163.787C65.7174 162.576 64.7595 160.761 64.8009 158.798C66.7282 158.757 68.5147 159.684 69.708 160.502C69.845 160.595 70.0192 160.618 70.1758 160.561C70.3314 160.505 70.4521 160.375 70.4958 160.216C71.0162 158.356 71.5489 156.999 71.9251 156.149C71.9597 156.242 71.9948 156.335 72.0291 156.428C73.047 159.162 74.2012 162.26 72.7572 164.504C71.8847 165.859 70.5228 166.748 70.5094 166.756C68.3396 168.317 65.274 167.142 62.5704 166.105L62.5703 166.105Z" fill="#E8BC90"/>
<path d="M196.059 35.561V47.0548" stroke="#E8BC90" stroke-miterlimit="10" stroke-linecap="round" stroke-linejoin="round"/>
<path d="M196.059 47.6675L188.783 51.0301H203.335L196.059 47.6675Z" stroke="#E8BC90" stroke-miterlimit="10" stroke-linecap="round" stroke-linejoin="round"/>
<path d="M196.108 35.3928C189.354 35.3928 183.879 31.4801 183.879 23.1638C184.123 17.6609 186.325 8 186.325 8H196.147" stroke="#E8BC90" stroke-miterlimit="10" stroke-linecap="round" stroke-linejoin="round"/>
<path d="M196.186 35.3928C202.94 35.3928 208.415 31.4801 208.415 23.1638C208.171 17.6609 205.969 8 205.969 8H196.147" stroke="#E8BC90" stroke-miterlimit="10" stroke-linecap="round" stroke-linejoin="round"/>
<path d="M185.092 28.9404C187.285 28.9404 187.285 29.379 189.478 29.379C191.669 29.379 191.669 28.9404 193.86 28.9404C196.053 28.9404 196.053 29.379 198.247 29.379C200.441 29.379 200.441 28.9404 202.636 28.9404C204.831 28.9404 204.831 29.379 207.026 29.379" stroke="#E8BC90" stroke-miterlimit="10" stroke-linecap="round" stroke-linejoin="round"/>
<path d="M172.008 87.5858L144.843 88.0382L144.388 93.8345C144.337 94.4785 144.028 95.0431 143.57 95.434C143.112 95.8254 142.506 96.0432 141.862 95.9926C141.218 95.9419 140.653 95.6327 140.262 95.1749C139.871 94.717 139.653 94.1105 139.704 93.4665L139.881 91.216C139.467 91.4757 138.971 91.6101 138.451 91.5693C137.931 91.5285 137.462 91.3183 137.095 90.9971L136.981 92.4442C136.98 92.4594 136.979 92.4741 136.977 92.4888C136.921 93.1225 136.614 93.6778 136.162 94.0638C135.709 94.4503 135.113 94.6676 134.478 94.624C134.461 94.6235 134.445 94.6224 134.429 94.6202C133.795 94.5636 133.24 94.2565 132.854 93.8047C132.467 93.3523 132.25 92.7556 132.294 92.1208C132.294 92.1056 132.295 92.0909 132.297 92.0762L132.598 88.243L122.484 88.4118V88.4134C122.221 88.4178 122.004 88.2082 122 87.9452C121.998 87.8255 122.04 87.7149 122.112 87.63L152.29 47.6594L152.669 47.9457L152.289 47.6588C152.447 47.4487 152.746 47.4073 152.956 47.5657C152.968 47.5744 152.979 47.5837 152.99 47.5935C160.428 53.5057 165.153 59.3489 168.1 65.7336C171.047 72.1211 172.206 79.035 172.517 87.0931H172.518C172.529 87.356 172.323 87.5771 172.06 87.5874C172.043 87.5879 172.026 87.5879 172.008 87.5863L172.008 87.5858ZM144.402 87.5711L144.395 87.0964L171.548 86.644C171.215 78.9145 170.067 72.264 167.236 66.1304C164.4 59.9831 159.864 54.337 152.754 48.6203L123.443 87.4439L133.063 87.2839C133.092 87.2812 133.121 87.2806 133.15 87.2828C133.413 87.3035 133.609 87.5327 133.588 87.7951H133.588L133.246 92.1503L133.245 92.1694H133.244C133.214 92.5526 133.343 92.913 133.576 93.1852C133.805 93.4536 134.135 93.6365 134.511 93.6703L134.528 93.6714V93.6719C134.911 93.7019 135.271 93.5729 135.544 93.3404C135.812 93.1112 135.995 92.7813 136.029 92.4046L136.03 92.3882H136.03L136.293 89.0423L137.242 89.1169C137.212 89.5001 137.341 89.8611 137.574 90.1327C137.806 90.4049 138.143 90.5895 138.526 90.6194C138.909 90.6494 139.27 90.5204 139.542 90.2879C139.814 90.0554 139.998 89.719 140.028 89.3357L140.977 89.4103L140.653 93.5402C140.623 93.9235 140.752 94.2844 140.984 94.5561C141.217 94.8283 141.553 95.0128 141.937 95.0428C142.32 95.0727 142.681 94.9437 142.952 94.7112C143.225 94.4788 143.409 94.1423 143.439 93.7591L143.927 87.5518C143.936 87.3003 144.141 87.0977 144.395 87.0934L144.403 87.5697L144.402 87.5711Z" fill="#E8BC90"/>
<path d="M139.381 75.7119C139.576 76.1006 139.595 76.5318 139.468 76.9145C139.341 77.2978 139.068 77.6326 138.679 77.828L138.68 77.8296C138.664 77.8378 138.648 77.8443 138.631 77.8503C138.255 78.024 137.843 78.0371 137.476 77.9151C137.092 77.7883 136.758 77.515 136.562 77.1257L136.56 77.1268C136.552 77.111 136.546 77.0947 136.54 77.0784C136.366 76.7022 136.353 76.2901 136.475 75.9226C136.602 75.5393 136.876 75.2045 137.265 75.0091C137.654 74.8142 138.085 74.7951 138.468 74.922C138.851 75.0493 139.186 75.3226 139.381 75.7119L139.381 75.7119ZM138.568 76.6167C138.618 76.4637 138.611 76.2917 138.533 76.136C138.455 75.9814 138.322 75.8725 138.17 75.8224C138.017 75.7718 137.845 75.7794 137.689 75.8573C137.534 75.9351 137.426 76.0679 137.375 76.2204C137.328 76.363 137.332 76.5231 137.396 76.6701C137.407 76.6897 137.417 76.7098 137.426 76.7305C137.505 76.8693 137.631 76.9673 137.773 77.0147C137.915 77.0621 138.076 77.0582 138.223 76.994C138.242 76.9826 138.262 76.9722 138.283 76.9635C138.422 76.8846 138.52 76.7588 138.567 76.6167L138.568 76.6167Z" fill="#E8BC90"/>
<path d="M145.421 70.0143C145.578 70.3268 145.593 70.6736 145.492 70.9812C145.389 71.2893 145.169 71.5588 144.856 71.7161L144.857 71.7177C144.84 71.7259 144.824 71.7335 144.807 71.7395C144.507 71.874 144.181 71.8827 143.889 71.7863C143.581 71.684 143.311 71.464 143.154 71.151L143.152 71.1521C143.144 71.1352 143.136 71.1183 143.13 71.1009C142.996 70.8015 142.987 70.4749 143.084 70.1831C143.187 69.8749 143.406 69.6055 143.72 69.4481C144.033 69.2913 144.379 69.2761 144.687 69.3784C144.995 69.4808 145.265 69.7007 145.422 70.0143L145.421 70.0143ZM144.591 70.6839C144.616 70.6061 144.612 70.5179 144.573 70.4389C144.533 70.3605 144.465 70.305 144.389 70.2794C144.311 70.2538 144.223 70.2577 144.144 70.2974C144.065 70.3366 144.01 70.4046 143.984 70.4814C143.961 70.5505 143.962 70.6278 143.99 70.7002C144 70.7166 144.008 70.734 144.016 70.7514C144.056 70.8168 144.117 70.863 144.186 70.8859C144.256 70.9088 144.333 70.9082 144.405 70.8799C144.421 70.8701 144.439 70.8619 144.456 70.8543C144.521 70.814 144.568 70.7525 144.591 70.6839L144.591 70.6839Z" fill="#E8BC90"/>
<path d="M157.573 72.0173C157.826 72.5214 157.85 73.0805 157.685 73.5765C157.52 74.073 157.167 74.5069 156.662 74.7606L156.663 74.7622C156.648 74.7698 156.633 74.7764 156.617 74.7824C156.125 75.0148 155.584 75.0333 155.102 74.8738C154.606 74.7089 154.172 74.355 153.918 73.8503L153.917 73.8514C153.909 73.8362 153.902 73.8209 153.896 73.8057C153.664 73.3136 153.645 72.7724 153.805 72.2906C153.97 71.7936 154.324 71.3597 154.829 71.1065C155.333 70.8534 155.892 70.8289 156.388 70.9938C156.885 71.1588 157.319 71.5132 157.572 72.0179L157.573 72.0173ZM156.785 73.2792C156.873 73.013 156.86 72.7125 156.724 72.4419C156.588 72.1719 156.357 71.9824 156.09 71.8942C155.824 71.806 155.524 71.8191 155.253 71.9552C154.983 72.0908 154.794 72.3227 154.705 72.5889C154.62 72.8442 154.629 73.1306 154.749 73.3919C154.763 73.4131 154.773 73.436 154.783 73.4594C154.92 73.712 155.145 73.8895 155.399 73.9739C155.655 74.0588 155.941 74.0501 156.202 73.9298C156.224 73.9167 156.247 73.9058 156.27 73.896C156.523 73.7588 156.7 73.5345 156.784 73.2797L156.785 73.2792Z" fill="#E8BC90"/>
<path d="M163.11 66.0007C163.128 66.0296 163.144 66.0606 163.156 66.0922C163.387 66.5843 163.406 67.1249 163.246 67.6061C163.087 68.0879 162.749 68.5104 162.268 68.7668C162.239 68.7853 162.208 68.8011 162.177 68.8125C161.685 69.0444 161.144 69.063 160.663 68.9034C160.166 68.7385 159.732 68.3841 159.479 67.8794C159.226 67.3753 159.201 66.8162 159.366 66.3202C159.531 65.8231 159.885 65.3892 160.39 65.1361C160.894 64.8829 161.453 64.8584 161.949 65.0234C162.431 65.1829 162.854 65.521 163.11 66.0017L163.11 66.0007ZM162.346 67.3084C162.431 67.0531 162.422 66.7661 162.301 66.5043C162.295 66.4939 162.289 66.4831 162.283 66.4716L162.285 66.4705C162.149 66.2005 161.918 66.0111 161.652 65.9229C161.386 65.8347 161.085 65.8477 160.815 65.9838C160.545 66.1194 160.355 66.3513 160.267 66.617C160.179 66.8832 160.192 67.1837 160.328 67.4543C160.463 67.7243 160.695 67.9138 160.962 68.002C161.217 68.0869 161.503 68.0782 161.765 67.9573C161.775 67.9508 161.786 67.9453 161.797 67.9393L161.798 67.941H161.799L161.991 68.3253L162.011 68.3651L161.799 67.941C162.069 67.8054 162.258 67.5735 162.347 67.3078L162.346 67.3084Z" fill="#E8BC90"/>
<path d="M146.528 77.9932C146.515 77.9719 146.503 77.9491 146.494 77.9257C146.357 77.673 146.133 77.4956 145.878 77.4106C145.623 77.3257 145.336 77.335 145.075 77.4553C145.054 77.4684 145.031 77.4792 145.007 77.489C144.755 77.6262 144.577 77.8505 144.493 78.1053C144.408 78.3606 144.417 78.647 144.538 78.9083C144.551 78.9295 144.561 78.9524 144.571 78.9758C144.708 79.2284 144.933 79.4059 145.188 79.4903C145.443 79.5752 145.729 79.5665 145.991 79.4462C146.012 79.4331 146.035 79.4222 146.059 79.4124C146.311 79.2752 146.489 79.0509 146.573 78.7962C146.658 78.5408 146.649 78.2545 146.529 77.9932H146.528ZM147.381 77.5794C147.614 78.0715 147.632 78.6127 147.472 79.0939C147.307 79.5904 146.954 80.0243 146.449 80.278L146.45 80.2796C146.435 80.2873 146.42 80.2938 146.404 80.2998C145.912 80.5322 145.371 80.5508 144.889 80.3912C144.393 80.2263 143.959 79.8724 143.705 79.3677L143.704 79.3688C143.696 79.3536 143.689 79.3383 143.683 79.3226C143.451 78.8304 143.432 78.2893 143.592 77.8075C143.757 77.311 144.111 76.8771 144.615 76.6234L144.614 76.6218C144.63 76.6142 144.645 76.6076 144.66 76.6016C145.152 76.3692 145.693 76.3507 146.175 76.5102C146.672 76.6751 147.106 77.029 147.359 77.5337L147.361 77.5326C147.368 77.5478 147.375 77.5631 147.381 77.5788L147.381 77.5794Z" fill="#E8BC90"/>
<path d="M164.49 74.3826C164.357 74.1556 164.065 74.0788 163.838 74.2116C163.611 74.3439 163.535 74.6357 163.667 74.8628L166.271 79.3182L165.259 80.2366C165.065 80.4135 165.051 80.7141 165.228 80.9084C165.405 81.1028 165.705 81.1169 165.9 80.94L167.175 79.782C167.356 79.6367 167.409 79.377 167.288 79.1701L164.491 74.3826L164.49 74.3826Z" fill="#E8BC90"/>
<path d="M150.093 64.6289C149.954 64.4057 149.661 64.3377 149.438 64.4765C149.215 64.6153 149.147 64.9082 149.285 65.1314L150.851 67.6395C150.99 67.8627 151.283 67.9307 151.506 67.7919C151.729 67.6531 151.797 67.3602 151.659 67.137L150.093 64.6289Z" fill="#E8BC90"/>
<path d="M150.365 76.9795C150.251 76.7422 149.967 76.6415 149.73 76.7542C149.492 76.8674 149.392 77.1516 149.504 77.3889L151.23 81.0022C151.343 81.2395 151.627 81.3403 151.864 81.2276C152.102 81.1143 152.203 80.8301 152.09 80.5928L150.365 76.9795Z" fill="#E8BC90"/>
<path d="M130.942 82.4282C130.683 82.4712 130.508 82.7162 130.551 82.9753C130.594 83.2344 130.839 83.4092 131.098 83.3662L136.644 82.4282C136.903 82.3852 137.078 82.1402 137.035 81.881C136.992 81.6219 136.747 81.4471 136.488 81.4901L130.942 82.4282Z" fill="#E8BC90"/>
<path d="M152.285 47.6626L156.409 41.2708L156.809 41.5278L156.409 41.2697C156.552 41.0487 156.847 40.985 157.068 41.1276C157.098 41.1472 157.125 41.1695 157.149 41.194C165.249 48.5071 170.541 55.5447 174.034 63.0748C177.527 70.6061 179.214 78.6185 180.108 87.885H180.11C180.135 88.1469 179.943 88.3799 179.681 88.4049C179.637 88.4093 179.593 88.4071 179.551 88.3995L171.991 87.5845L172.041 87.112L171.99 87.5856C171.739 87.5584 171.555 87.3412 171.565 87.0924C171.257 79.1718 170.12 72.3835 167.235 66.1328C164.348 59.8759 159.702 54.1396 152.373 48.3189L152.373 48.3194C152.171 48.1594 152.134 47.8686 152.286 47.6634L152.285 47.6626ZM156.904 42.2567L153.301 47.8428C160.56 53.6701 165.194 59.4386 168.099 65.7349C170.996 72.0141 172.165 78.8011 172.499 86.6832L179.105 87.3953C178.207 78.478 176.541 70.7409 173.17 63.4728C169.788 56.1822 164.682 49.3507 156.904 42.2569L156.904 42.2567Z" fill="#E8BC90"/>
<path d="M152.61 57.1691C152.816 57.5801 152.836 58.0352 152.702 58.4397C152.567 58.8447 152.278 59.1986 151.867 59.4049C151.457 59.6107 151.001 59.6309 150.597 59.4969C150.192 59.3625 149.838 59.0739 149.631 58.6629L149.63 58.664C149.622 58.6482 149.615 58.6324 149.609 58.6161C149.424 58.2176 149.41 57.781 149.539 57.3917C149.674 56.9872 149.962 56.6334 150.373 56.427L150.372 56.4254C150.388 56.4178 150.404 56.4107 150.42 56.4047C150.818 56.2196 151.255 56.2054 151.645 56.335C152.05 56.4695 152.404 56.758 152.61 57.1696L152.61 57.1691ZM151.801 58.1419C151.859 57.9672 151.85 57.7706 151.762 57.5931C151.673 57.4168 151.521 57.2926 151.347 57.2349C151.183 57.1805 150.999 57.1848 150.83 57.26C150.81 57.2719 150.789 57.2823 150.768 57.291C150.607 57.3814 150.494 57.5256 150.44 57.689C150.385 57.8534 150.39 58.0368 150.465 58.2061C150.477 58.2263 150.487 58.247 150.496 58.2688C150.586 58.4288 150.731 58.542 150.894 58.5965C151.069 58.6542 151.265 58.6455 151.443 58.5567C151.619 58.468 151.743 58.3161 151.801 58.1425L151.801 58.1419Z" fill="#E8BC90"/>
<path d="M158.192 80.197C158.398 80.6075 158.417 81.0632 158.284 81.4677C158.149 81.8727 157.86 82.2266 157.449 82.4329C157.039 82.6387 156.583 82.6588 156.178 82.5249C155.773 82.3904 155.419 82.1014 155.213 81.6903C155.007 81.2799 154.987 80.8242 155.121 80.4197C155.256 80.0147 155.544 79.6608 155.956 79.4545C156.366 79.2487 156.822 79.2285 157.226 79.3625C157.631 79.4969 157.985 79.786 158.192 80.197ZM157.383 81.1699C157.441 80.9951 157.432 80.7986 157.343 80.6211C157.255 80.4447 157.103 80.3206 156.929 80.2629C156.754 80.2052 156.558 80.2139 156.38 80.3027C156.204 80.3914 156.08 80.5433 156.022 80.717C155.964 80.8917 155.973 81.0882 156.062 81.2657C156.151 81.4421 156.302 81.5662 156.476 81.6239C156.651 81.6816 156.847 81.6729 157.025 81.5842C157.201 81.4954 157.325 81.3436 157.383 81.1699Z" fill="#E8BC90"/>
<path d="M152.847 27.8393C152.814 28.3926 153.003 28.921 153.379 29.3277L154.081 30.0866C154.253 30.273 154.454 30.4222 154.674 30.5298C154.935 30.6575 155.223 30.7281 155.523 30.7337C156.078 30.744 156.599 30.5332 156.991 30.14L158.997 28.1269L160.294 29.5301C161.311 30.6314 163.035 30.6971 164.137 29.679L164.251 29.5733C165.7 28.2341 166.526 26.3346 166.518 24.3617C166.509 22.3647 165.686 20.5212 164.2 19.1699C161.529 16.7409 157.299 16.8126 154.572 19.334C154.039 19.8266 153.729 20.4982 153.701 21.2235C153.672 21.9498 153.927 22.6433 154.42 23.1761L155.718 24.5795L153.554 26.422C153.131 26.7819 152.88 27.2848 152.847 27.8393L152.847 27.8393ZM154.28 27.2757L156.889 25.0549C157.005 24.9561 157.076 24.8141 157.085 24.6617C157.094 24.5094 157.041 24.3596 156.937 24.2478L155.243 22.4156C154.954 22.1026 154.804 21.6947 154.82 21.2685C154.837 20.8414 155.019 20.4469 155.334 20.1564C157.226 18.4068 159.97 18.0485 162.134 19.1091C162.603 19.3391 163.046 19.6356 163.446 20.0002C164.697 21.137 165.39 22.6874 165.397 24.3666C165.404 26.0261 164.709 27.624 163.491 28.7508L163.377 28.8564C162.729 29.4545 161.716 29.4144 161.118 28.7693L159.424 26.937C159.32 26.8247 159.175 26.7598 159.023 26.757C158.871 26.7542 158.723 26.8139 158.616 26.9218L156.198 29.3485C156.023 29.5235 155.792 29.6172 155.545 29.6125C155.299 29.608 155.072 29.5058 154.905 29.3258L154.202 28.5667C154.036 28.3862 153.952 28.1513 153.966 27.9059C153.981 27.6596 154.092 27.4356 154.28 27.2757L154.28 27.2757Z" fill="#E8BC90"/>
<path d="M120 51C118.909 51 118 51.909 118 53C118 54.091 118.909 55 120 55C121.091 55 122 54.091 122 53C122 51.8637 121.091 51 120 51ZM120 54.0453C119.409 54.0453 118.909 53.5453 118.909 52.9544C118.909 52.3634 119.409 51.8634 120 51.8634C120.591 51.8634 121.091 52.3634 121.091 52.9544C121.091 53.5454 120.591 54.0453 120 54.0453Z" fill="#E8BC90"/>
<path d="M107 94C105.909 94 105 94.909 105 96C105 97.091 105.909 98 107 98C108.091 98 109 97.091 109 96C109 94.8637 108.091 94 107 94ZM107 97.0453C106.409 97.0453 105.909 96.5453 105.909 95.9544C105.909 95.3634 106.409 94.8634 107 94.8634C107.591 94.8634 108.091 95.3634 108.091 95.9544C108.091 96.5454 107.591 97.0453 107 97.0453Z" fill="#E8BC90"/>
<path d="M153 6C151.909 6 151 6.90897 151 8C151 9.09103 151.909 10 153 10C154.091 10 155 9.09103 155 8C155 6.86368 154.091 6 153 6ZM153 9.04533C152.409 9.04533 151.909 8.54534 151.909 7.95439C151.909 7.36344 152.409 6.86344 153 6.86344C153.591 6.86344 154.091 7.36344 154.091 7.95439C154.091 8.54537 153.591 9.04533 153 9.04533Z" fill="#E8BC90"/>
<path d="M171 8C169.909 8 169 8.90897 169 10C169 11.091 169.909 12 171 12C172.091 12 173 11.091 173 10C173 8.86368 172.091 8 171 8ZM171 11.0453C170.409 11.0453 169.909 10.5453 169.909 9.95439C169.909 9.36344 170.409 8.86344 171 8.86344C171.591 8.86344 172.091 9.36344 172.091 9.95439C172.091 10.5454 171.591 11.0453 171 11.0453Z" fill="#E8BC90"/>
<path d="M74.2185 55.4895C75.4714 56.3691 77.2063 56.0746 78.0967 54.8279C78.53 54.2213 78.7002 53.4809 78.5774 52.7455C78.4552 52.0166 78.0588 51.3779 77.4621 50.9452C77.9202 49.637 77.4771 48.1635 76.3145 47.3331C75.9905 47.1021 75.6285 46.9362 75.2452 46.8408C75.2702 45.8065 74.7853 44.8105 73.9222 44.1948C73.5313 43.9157 73.0879 43.732 72.6205 43.6527C72.4804 42.7188 71.968 41.8692 71.1922 41.3154C70.3142 40.6889 69.2282 40.5055 68.2089 40.7947C68.0021 40.529 67.7592 40.296 67.4831 40.0995C65.7432 38.8574 63.7296 39.6477 62.1123 40.2827C60.9729 40.7299 59.8969 41.1522 59.3126 40.7349L59.3122 40.7348L57.0035 39.087C56.7526 38.9077 56.4042 38.9662 56.2254 39.2169C56.185 39.2729 56.1571 39.3335 56.1403 39.3963C56.0819 39.6143 56.1606 39.8557 56.355 39.9948L58.6644 41.6429C59.2484 42.06 59.1985 43.2146 59.146 44.4372C59.0715 46.1737 58.9783 48.3346 60.7186 49.5768C60.9946 49.7736 61.294 49.928 61.6122 50.0366C61.6697 51.0938 62.1962 52.0623 63.0734 52.6885C63.8502 53.2431 64.8201 53.451 65.749 53.2797C65.9757 53.6966 66.2928 54.0559 66.6842 54.3348C67.5472 54.9507 68.647 55.0859 69.6168 54.7262C69.831 55.0571 70.1061 55.346 70.4294 55.5768C71.5923 56.4073 73.1349 56.3465 74.2187 55.4896L74.2185 55.4895ZM71.0772 54.6696C70.7651 54.4466 70.5227 54.1395 70.376 53.7819C70.3144 53.6313 70.1897 53.5149 70.0354 53.4639C69.8803 53.4127 69.7113 53.4314 69.572 53.5154C68.8742 53.9351 67.9943 53.9007 67.3316 53.4274C66.9879 53.1823 66.7319 52.8406 66.5921 52.4389C66.4909 52.1491 66.1751 51.9957 65.8851 52.0948C65.1544 52.3441 64.3454 52.2269 63.7212 51.7812C63.036 51.2923 62.6654 50.4969 62.729 49.6538C62.7503 49.3731 62.5588 49.1208 62.2829 49.065C61.9488 48.998 61.6405 48.8646 61.3665 48.6692C60.1187 47.7785 60.1911 46.1043 60.2601 44.4857C60.2855 43.8934 60.3047 43.318 60.2637 42.7854L63.7087 45.2442L64.1637 47.9604C64.2148 48.2642 64.5023 48.4693 64.8064 48.4182C65.1105 48.3676 65.3155 48.0805 65.2645 47.776L64.9938 46.1613L67.423 47.8951L67.8779 50.6113C67.9291 50.9151 68.2166 51.1202 68.5207 51.0692C68.8247 51.0185 69.0301 50.7315 68.9788 50.4269L68.7081 48.8123L71.2183 50.604C71.4692 50.7833 71.8176 50.7247 71.9964 50.4741C72.174 50.2232 72.117 49.8752 71.8665 49.6961L69.3566 47.9044L70.9712 47.6353C71.2753 47.5846 71.4818 47.2963 71.4296 46.9935C71.3788 46.6898 71.092 46.4841 70.7878 46.5351L68.0719 46.9873L65.6425 45.2535L67.2571 44.9843C67.5608 44.9336 67.7676 44.6458 67.7155 44.3425C67.6647 44.0389 67.3778 43.8331 67.0737 43.8842L64.3578 44.3363L60.9125 41.8771C61.4295 41.7429 61.9678 41.5378 62.5198 41.3212C64.0279 40.7294 65.5874 40.1172 66.8353 41.0079C67.1089 41.2029 67.3353 41.4513 67.5075 41.7451C67.6498 41.9883 67.9505 42.087 68.2094 41.9759C68.9865 41.6423 69.859 41.7343 70.5441 42.2232C71.1688 42.669 71.5425 43.3956 71.5443 44.1675C71.5445 44.4737 71.7929 44.7224 72.0999 44.7236C72.5239 44.7257 72.9305 44.8564 73.2747 45.1021C73.9379 45.5755 74.2563 46.3956 74.0857 47.1918C74.0518 47.3511 74.0887 47.5173 74.1878 47.6466C74.2861 47.776 74.4366 47.8563 74.5989 47.8655C74.9853 47.8877 75.3549 48.0177 75.6671 48.2404C76.3752 48.7459 76.6713 49.6225 76.4559 50.4261C76.4126 50.5878 76.3488 50.7463 76.2634 50.8982C76.1888 51.0337 76.1712 51.1954 76.2195 51.3445C76.2676 51.4928 76.3757 51.614 76.5179 51.6787C76.6187 51.725 76.7127 51.7788 76.7968 51.8392C77.1616 52.0997 77.404 52.4865 77.4782 52.9286C77.5515 53.3704 77.4496 53.814 77.1895 54.1786C76.6524 54.931 75.6028 55.1058 74.8494 54.568C74.7645 54.5074 74.6829 54.436 74.6069 54.356C74.4994 54.243 74.3494 54.1802 74.1937 54.1824C74.0379 54.185 73.8901 54.2525 73.786 54.3689C73.092 55.1473 71.9279 55.2761 71.0773 54.6695L71.0772 54.6696Z" fill="#E8BC90"/>
<path d="M216.55 28.1889C215.162 28.8342 214.549 30.4839 215.184 31.8784C215.493 32.5569 216.049 33.0745 216.747 33.3359C217.439 33.5945 218.191 33.5706 218.864 33.2701C219.768 34.3209 221.265 34.674 222.566 34.0824C222.928 33.9173 223.252 33.6867 223.527 33.4025C224.41 33.9413 225.515 34.0194 226.48 33.5797C226.917 33.3808 227.298 33.0886 227.6 32.7235C228.479 33.069 229.471 33.0501 230.338 32.6552C231.32 32.2081 232.022 31.3593 232.281 30.3318C232.614 30.2856 232.938 30.1918 233.246 30.0509C235.191 29.1652 235.514 27.0262 235.773 25.3081C235.955 24.0977 236.127 22.9547 236.781 22.6573L236.781 22.657L239.363 21.4816C239.643 21.3539 239.767 21.0229 239.639 20.7428C239.611 20.6798 239.572 20.6253 239.526 20.5794C239.367 20.4198 239.118 20.3672 238.901 20.466L236.318 21.642C235.665 21.9392 234.69 21.3187 233.658 20.6619C232.191 19.7292 230.366 18.568 228.421 19.4541C228.112 19.5947 227.829 19.7768 227.576 19.9981C226.631 19.5193 225.529 19.491 224.548 19.9375C223.68 20.3329 223.015 21.069 222.698 21.9591C222.224 21.9469 221.754 22.0419 221.317 22.2414C220.352 22.6808 219.685 23.5657 219.512 24.5854C219.118 24.6055 218.73 24.6993 218.369 24.8639C217.068 25.4557 216.35 26.8221 216.55 28.1891L216.55 28.1889ZM218.831 25.8785C219.18 25.7197 219.567 25.6633 219.95 25.715C220.111 25.737 220.274 25.6872 220.396 25.5791C220.518 25.4704 220.586 25.3147 220.583 25.1521C220.568 24.3379 221.038 23.593 221.779 23.2557C222.163 23.0807 222.587 23.0298 223.005 23.1096C223.307 23.1668 223.597 22.9701 223.657 22.6694C223.806 21.9119 224.312 21.27 225.01 20.9521C225.776 20.6032 226.65 20.68 227.349 21.1566C227.581 21.3154 227.895 21.2758 228.082 21.0647C228.307 20.8088 228.576 20.6085 228.883 20.469C230.278 19.8337 231.691 20.7334 233.059 21.6026C233.559 21.9206 234.048 22.225 234.529 22.4558L230.678 24.2099L228.098 23.2458C227.809 23.1382 227.488 23.2846 227.38 23.5735C227.272 23.8621 227.418 24.1832 227.707 24.2914L229.241 24.8642L226.525 26.1011L223.945 25.137C223.656 25.0294 223.335 25.1758 223.227 25.4647C223.119 25.7533 223.265 26.0747 223.554 26.1825L225.088 26.7554L222.281 28.0334C222 28.1611 221.877 28.4921 222.004 28.7722C222.133 29.0515 222.463 29.1761 222.743 29.0487L225.55 27.771L224.976 29.3039C224.867 29.5925 225.014 29.9155 225.302 30.0217C225.591 30.1296 225.912 29.984 226.02 29.6951L226.986 27.117L229.703 25.8799L229.128 27.4128C229.021 27.7012 229.166 28.0242 229.455 28.1307C229.743 28.2385 230.065 28.093 230.173 27.8041L231.139 25.2259L234.992 23.4719C234.849 23.9867 234.758 24.5554 234.669 25.1418C234.428 26.7437 234.178 28.4004 232.783 29.0357C232.477 29.1752 232.149 29.247 231.808 29.2492C231.527 29.2509 231.291 29.4619 231.258 29.7417C231.158 30.5815 230.642 31.2911 229.876 31.64C229.178 31.9581 228.362 31.9185 227.692 31.5341C227.427 31.3811 227.087 31.4719 226.933 31.7371C226.719 32.1033 226.403 32.39 226.018 32.5653C225.276 32.9029 224.407 32.7687 223.802 32.2228C223.681 32.1138 223.519 32.0626 223.357 32.0838C223.196 32.1042 223.052 32.1944 222.962 32.3304C222.75 32.654 222.453 32.909 222.104 33.0681C221.312 33.4285 220.405 33.2466 219.816 32.6583C219.698 32.54 219.593 32.4054 219.504 32.2555C219.424 32.1231 219.292 32.0271 219.139 31.9944C218.987 31.9619 218.828 31.9949 218.701 32.0857C218.61 32.1498 218.516 32.2043 218.422 32.247C218.014 32.4327 217.558 32.4492 217.138 32.2924C216.719 32.135 216.385 31.8249 216.2 31.4174C215.817 30.576 216.19 29.5797 217.033 29.1961C217.128 29.1529 217.23 29.1179 217.337 29.0921C217.489 29.0555 217.618 28.957 217.694 28.821C217.77 28.6848 217.785 28.5231 217.737 28.3748C217.41 27.3845 217.88 26.312 218.831 25.8786L218.831 25.8785Z" fill="#E8BC90"/>
<path d="M234.324 187.597C236.92 183.246 235.628 176.973 231.153 172.498C226.677 168.022 220.404 166.73 216.055 169.332L215.493 168.77C214.671 167.948 213.334 167.949 212.512 168.77C212.113 169.169 211.893 169.698 211.893 170.261C211.893 170.83 212.114 171.361 212.512 171.751L213.074 172.314C211.75 174.537 211.428 177.391 212.144 180.295L208.218 180.295H204.527C204.236 180.295 204 180.531 204 180.822C204 186.928 208.967 191.895 215.073 191.895C216.98 191.895 218.847 191.399 220.495 190.469C222.415 191.412 224.418 191.889 226.318 191.889C228.144 191.889 229.874 191.453 231.339 190.582L231.899 191.138C232.297 191.539 232.826 191.761 233.39 191.761H233.391C233.955 191.761 234.485 191.539 234.88 191.141C235.281 190.743 235.502 190.213 235.502 189.649C235.502 189.085 235.282 188.556 234.881 188.158L234.324 187.597ZM212.821 181.35H213.8L210.247 184.902C209.42 183.925 208.879 182.699 208.767 181.35H212.821ZM210.994 185.647L214.545 182.095V187.124C213.197 187.012 211.97 186.474 210.994 185.647V185.647ZM215.6 182.095L219.153 185.648C218.49 186.21 217.711 186.645 216.844 186.897C216.439 187.015 216.022 187.09 215.6 187.125V182.095ZM219.898 184.901L216.346 181.35H221.378C221.265 182.678 220.731 183.914 219.898 184.901H219.898ZM205.068 181.35H207.718C207.99 185.174 211.18 188.204 215.073 188.204C215.776 188.204 216.471 188.105 217.139 187.909C220.099 187.051 222.212 184.397 222.433 181.349H225.077C225.055 181.763 225.007 182.173 224.934 182.577C224.426 185.403 222.711 187.931 220.206 189.423C218.661 190.351 216.886 190.841 215.073 190.841C209.726 190.841 205.344 186.629 205.068 181.35L205.068 181.35ZM234.134 190.395C233.935 190.596 233.671 190.706 233.39 190.706H233.39C233.11 190.706 232.846 190.596 232.644 190.392L231.785 189.538C231.607 189.362 231.331 189.335 231.121 189.473C228.564 191.175 224.964 191.281 221.55 189.801C221.625 189.746 221.697 189.687 221.77 189.631C221.846 189.573 221.923 189.516 221.998 189.456C222.108 189.367 222.215 189.275 222.321 189.182C222.388 189.125 222.456 189.069 222.52 189.01C222.637 188.903 222.75 188.792 222.861 188.681C222.911 188.631 222.964 188.583 223.013 188.533C223.331 188.204 223.627 187.857 223.901 187.493C223.945 187.435 223.985 187.375 224.027 187.317C224.118 187.191 224.208 187.066 224.294 186.937C224.342 186.863 224.387 186.788 224.434 186.714C224.508 186.596 224.582 186.478 224.652 186.357C224.699 186.276 224.743 186.193 224.788 186.11C224.851 185.993 224.915 185.876 224.974 185.756C225.018 185.67 225.058 185.582 225.099 185.494C225.155 185.376 225.209 185.256 225.26 185.136C225.298 185.046 225.335 184.955 225.371 184.863C225.419 184.742 225.465 184.62 225.508 184.497C225.541 184.404 225.573 184.311 225.604 184.218C225.644 184.093 225.681 183.968 225.717 183.842C225.744 183.748 225.771 183.653 225.796 183.558C225.829 183.43 225.858 183.3 225.886 183.17C225.907 183.076 225.928 182.982 225.947 182.888C225.973 182.751 225.994 182.613 226.015 182.475C226.029 182.386 226.044 182.297 226.056 182.208C226.075 182.055 226.088 181.901 226.102 181.747C226.108 181.67 226.118 181.594 226.123 181.518C226.137 181.287 226.146 181.055 226.146 180.822C226.146 180.531 225.91 180.295 225.618 180.295H221.927L213.219 180.295C212.447 177.428 212.792 174.616 214.183 172.531C214.322 172.322 214.294 172.043 214.117 171.866L213.254 171.003C213.056 170.809 212.948 170.546 212.948 170.261C212.948 169.98 213.058 169.716 213.257 169.516C213.668 169.105 214.337 169.106 214.748 169.516L215.607 170.376C215.785 170.553 216.063 170.581 216.272 170.442C220.149 167.858 226.226 169.063 230.408 173.244C234.587 177.424 235.795 183.501 233.215 187.38C233.076 187.588 233.104 187.866 233.28 188.044L234.135 188.903C234.135 188.904 234.136 188.905 234.137 188.906C234.338 189.104 234.448 189.368 234.448 189.649C234.447 189.93 234.337 190.194 234.134 190.396L234.134 190.395Z" fill="#E8BC90"/>
<path d="M187.344 154.719H182V152.688C183.683 152.451 184.981 151.043 184.981 149.343C184.981 147.607 182.192 144.504 181.874 144.156C181.684 143.948 181.317 143.948 181.127 144.156C180.809 144.504 178.02 147.608 178.02 149.343C178.02 151.043 179.318 152.451 181.001 152.688V154.719H171.5V152.688C173.183 152.451 174.481 151.043 174.481 149.343C174.481 147.607 171.692 144.504 171.374 144.156C171.184 143.948 170.817 143.948 170.627 144.156C170.309 144.504 167.52 147.608 167.52 149.343C167.52 151.043 168.818 152.451 170.501 152.688L170.5 154.719H161V152.688C162.683 152.451 163.981 151.043 163.981 149.343C163.981 147.607 161.192 144.504 160.873 144.156C160.684 143.948 160.317 143.948 160.127 144.156C159.809 144.504 157.02 147.608 157.02 149.343C157.02 151.043 158.318 152.451 160 152.688V154.719H154.656C152.64 154.719 151 156.319 151 158.285V164.298C151 165.417 151.526 166.417 152.35 167.077V173.976H151.5C151.224 173.976 151 174.194 151 174.463V175.162C151 177.314 152.213 178.883 154.021 179.197V182.512C154.021 182.782 154.245 183 154.521 183H187.479C187.755 183 187.979 182.782 187.979 182.512V179.197C189.787 178.883 191 177.314 191 175.162V174.463C191 174.194 190.776 173.976 190.5 173.976H189.969V166.288C190.606 165.641 191 164.765 191 163.8V158.285C191 156.319 189.36 154.719 187.344 154.719H187.344ZM179.02 149.343C179.02 148.424 180.416 146.49 181.501 145.227C182.585 146.49 183.981 148.423 183.981 149.343C183.981 150.671 182.868 151.752 181.501 151.752C180.133 151.752 179.02 150.671 179.02 149.343ZM168.52 149.343C168.52 148.424 169.916 146.49 171.001 145.227C172.085 146.49 173.481 148.423 173.481 149.343C173.481 150.671 172.368 151.752 171.001 151.752C169.633 151.752 168.52 150.671 168.52 149.343ZM158.02 149.343C158.02 148.424 159.416 146.49 160.501 145.227C161.585 146.49 162.981 148.423 162.981 149.343C162.981 150.671 161.868 151.752 160.501 151.752C159.133 151.752 158.02 150.671 158.02 149.343V149.343ZM155.021 182.025V179.258H186.98V182.025H155.021ZM190.001 175.162C190.001 176.716 189.166 178.283 187.301 178.283H154.701C152.836 178.283 152.001 176.716 152.001 175.162V174.951H190.001L190.001 175.162ZM153.351 173.976V167.646C153.767 167.805 154.217 167.895 154.69 167.895C156.724 167.895 158.378 166.282 158.378 164.298V162.032C158.378 161.092 159.162 160.327 160.127 160.327C161.091 160.327 161.875 161.092 161.875 162.032V168.263C161.875 170.247 163.53 171.86 165.564 171.86C167.598 171.86 169.252 170.246 169.252 168.263V165.932C169.253 164.992 170.037 164.227 171.001 164.227C171.965 164.227 172.75 164.992 172.75 165.932V166.249C172.75 168.232 174.404 169.846 176.438 169.846C178.472 169.846 180.127 168.232 180.127 166.249V163.251C180.127 162.311 180.911 161.546 181.875 161.546C182.839 161.546 183.623 162.311 183.623 163.251V163.8C183.623 165.783 185.278 167.397 187.312 167.397C187.908 167.397 188.47 167.255 188.969 167.009V173.976L153.351 173.976ZM190.001 163.8C190.001 165.245 188.795 166.422 187.312 166.422C185.83 166.422 184.624 165.245 184.624 163.8V163.251C184.624 161.772 183.391 160.57 181.875 160.57C180.36 160.57 179.127 161.772 179.127 163.251V166.248C179.127 167.694 177.921 168.87 176.438 168.87C174.955 168.87 173.749 167.694 173.749 166.248V165.932C173.749 164.454 172.516 163.252 171.001 163.252C169.485 163.252 168.252 164.454 168.252 165.932V168.263C168.252 169.709 167.046 170.885 165.564 170.885C164.081 170.885 162.875 169.709 162.875 168.263V162.032C162.875 160.553 161.642 159.351 160.127 159.351C158.611 159.351 157.378 160.554 157.378 162.032V164.298C157.378 165.744 156.172 166.92 154.69 166.92C153.207 166.92 152.001 165.744 152.001 164.298V158.285C152.001 156.856 153.193 155.694 154.657 155.694H187.345C188.809 155.694 190.001 156.856 190.001 158.285L190.001 163.8Z" fill="#E8BC90"/>
<path d="M210.023 124.168C210.054 124.325 210.15 124.452 210.278 124.526C210.384 124.587 210.512 124.612 210.642 124.587C210.929 124.532 211.116 124.254 211.06 123.968L210.928 123.283C210.873 122.996 210.596 122.809 210.309 122.865C210.023 122.92 209.835 123.197 209.891 123.483L210.023 124.168Z" fill="#E8BC90"/>
<path d="M217.636 128.258C217.666 128.415 217.762 128.542 217.89 128.616C217.997 128.677 218.124 128.702 218.254 128.677C218.541 128.621 218.728 128.344 218.673 128.058L218.541 127.372C218.485 127.086 218.208 126.898 217.922 126.953C217.635 127.009 217.448 127.286 217.503 127.572L217.636 128.258Z" fill="#E8BC90"/>
<path d="M210.225 127.749C210.279 127.781 210.34 127.803 210.406 127.813L211.095 127.923C211.383 127.969 211.654 127.773 211.7 127.485C211.747 127.196 211.549 126.927 211.261 126.88L210.572 126.77C210.284 126.724 210.013 126.92 209.967 127.208C209.931 127.431 210.041 127.643 210.225 127.749L210.225 127.749Z" fill="#E8BC90"/>
<path d="M204.557 121.511C204.612 121.543 204.673 121.565 204.739 121.576L205.428 121.684C205.717 121.73 205.987 121.534 206.032 121.245C206.078 120.957 205.882 120.687 205.593 120.641L204.904 120.532C204.615 120.487 204.345 120.683 204.299 120.971C204.265 121.194 204.374 121.405 204.557 121.511L204.557 121.511Z" fill="#E8BC90"/>
<path d="M213.661 126.623C213.716 126.654 213.777 126.677 213.842 126.687L214.531 126.796C214.82 126.843 215.09 126.646 215.136 126.358C215.182 126.069 214.985 125.8 214.698 125.753L214.008 125.644C213.72 125.597 213.449 125.794 213.403 126.082C213.368 126.305 213.477 126.516 213.661 126.623V126.623Z" fill="#E8BC90"/>
<path d="M219.104 132.732C219.159 132.763 219.22 132.786 219.286 132.796L219.975 132.905C220.264 132.951 220.534 132.754 220.579 132.466C220.625 132.177 220.428 131.909 220.14 131.862L219.45 131.753C219.162 131.707 218.892 131.904 218.846 132.192C218.811 132.414 218.92 132.626 219.104 132.732L219.104 132.732Z" fill="#E8BC90"/>
<path d="M205.96 124.32L206.508 124.753C206.528 124.77 206.55 124.784 206.572 124.797C206.796 124.926 207.085 124.875 207.25 124.667C207.431 124.439 207.392 124.106 207.163 123.925L206.616 123.492C206.391 123.307 206.055 123.35 205.874 123.579C205.692 123.807 205.731 124.139 205.96 124.32L205.96 124.32Z" fill="#E8BC90"/>
<path d="M228.503 137.335L229.05 137.768C229.071 137.784 229.092 137.799 229.115 137.812C229.338 137.941 229.628 137.89 229.792 137.682C229.974 137.453 229.935 137.121 229.706 136.94L229.158 136.507C228.933 136.322 228.597 136.364 228.416 136.593C228.235 136.821 228.274 137.153 228.503 137.335L228.503 137.335Z" fill="#E8BC90"/>
<path d="M215.191 129.591L215.739 130.024C215.759 130.04 215.781 130.055 215.803 130.068C216.027 130.197 216.316 130.146 216.481 129.938C216.662 129.709 216.623 129.377 216.394 129.196L215.847 128.763C215.622 128.579 215.286 128.62 215.104 128.849C214.923 129.078 214.962 129.41 215.191 129.591L215.191 129.591Z" fill="#E8BC90"/>
<path d="M224.451 132.193C224.481 132.349 224.577 132.476 224.705 132.55C224.812 132.612 224.94 132.637 225.07 132.611C225.356 132.556 225.543 132.279 225.488 131.993L225.355 131.307C225.299 131.021 225.023 130.832 224.736 130.889C224.449 130.944 224.262 131.221 224.318 131.507L224.451 132.193Z" fill="#E8BC90"/>
<path d="M220.476 130.557C220.53 130.589 220.591 130.611 220.656 130.621L221.346 130.731C221.634 130.777 221.905 130.581 221.951 130.292C221.997 130.004 221.8 129.734 221.512 129.688L220.823 129.578C220.534 129.532 220.264 129.728 220.218 130.016C220.183 130.239 220.291 130.451 220.476 130.557V130.557Z" fill="#E8BC90"/>
<path d="M227.161 134.705C227.215 134.737 227.276 134.759 227.342 134.769L228.032 134.878C228.32 134.924 228.59 134.728 228.636 134.439C228.681 134.151 228.484 133.881 228.197 133.835L227.507 133.726C227.219 133.68 226.949 133.877 226.903 134.165C226.868 134.388 226.977 134.599 227.161 134.705L227.161 134.705Z" fill="#E8BC90"/>
<path d="M222.006 133.525L222.554 133.959C222.574 133.975 222.596 133.989 222.618 134.003C222.842 134.132 223.131 134.081 223.296 133.873C223.477 133.644 223.438 133.312 223.209 133.131L222.662 132.698C222.438 132.514 222.101 132.555 221.92 132.784C221.739 133.013 221.777 133.344 222.006 133.525L222.006 133.525Z" fill="#E8BC90"/>
<path d="M231.359 142.958C231.682 142.96 231.995 142.902 232.28 142.778C232.814 142.545 233.176 142.115 233.3 141.569L233.369 141.264C234.29 137.213 231.744 132.543 227.178 129.907L210.671 120.376C205.962 117.658 200.4 117.912 197.446 120.981C197.072 121.37 196.909 121.894 196.988 122.456C197.027 122.728 197.12 122.994 197.26 123.243C195.118 123.492 194.527 125.07 194.499 125.149C194.414 125.389 194.513 125.654 194.733 125.782C195.458 126.2 195.861 126.569 196.18 126.933L194.647 129.588C194.295 129.55 193.935 129.586 193.593 129.709C192.937 129.944 192.42 130.454 192.176 131.106L191.64 132.537C190.996 134.257 191.682 136.172 193.273 137.091L221.73 153.52C223.321 154.439 225.323 154.076 226.491 152.658L227.461 151.478C227.904 150.94 228.087 150.238 227.963 149.552C227.882 149.109 227.67 148.714 227.374 148.389L228.885 145.772C229.329 145.87 229.823 146.041 230.488 146.426C230.738 146.57 231.058 146.487 231.206 146.239C231.245 146.175 231.993 144.874 231.359 142.958L231.359 142.958ZM198.208 121.714C200.83 118.991 205.849 118.812 210.143 121.292L226.65 130.822C230.818 133.228 233.158 137.426 232.338 141.031L232.269 141.336C232.22 141.552 232.081 141.712 231.856 141.81C231.466 141.98 230.929 141.917 230.454 141.643L198.876 123.412C198.415 123.145 198.092 122.722 198.034 122.309C198.011 122.143 198.022 121.906 198.208 121.714L198.208 121.714ZM223.383 145.934C222.056 145.168 220.495 144.906 218.99 145.196L216.617 145.653L215.827 143.369C215.326 141.921 214.318 140.701 212.991 139.935L195.668 129.933L196.893 127.813C197.273 128.264 197.762 128.737 198.679 129.266C199.885 129.963 200.637 130.068 201.365 130.169C202.021 130.261 202.641 130.347 203.669 130.941C204.697 131.534 205.082 132.027 205.49 132.55C205.941 133.13 206.408 133.729 207.614 134.425C208.82 135.122 209.574 135.227 210.301 135.328C210.958 135.42 211.578 135.507 212.606 136.1C213.634 136.694 214.019 137.188 214.427 137.711C214.879 138.29 215.347 138.89 216.554 139.587C217.76 140.283 218.513 140.388 219.241 140.49C219.897 140.581 220.518 140.668 221.546 141.262C222.575 141.856 222.96 142.35 223.368 142.873C223.821 143.453 224.288 144.052 225.495 144.749C226.478 145.316 227.159 145.49 227.772 145.591L226.526 147.749L223.383 145.935L223.383 145.934ZM226.647 150.807L225.676 151.986C224.838 153.004 223.401 153.264 222.259 152.605L193.803 136.175C192.661 135.516 192.168 134.142 192.63 132.907L193.166 131.476C193.301 131.115 193.588 130.833 193.951 130.703C194.314 130.572 194.714 130.608 195.049 130.801C195.056 130.806 195.065 130.805 195.073 130.81L212.461 140.849C213.569 141.488 214.409 142.506 214.827 143.714L215.767 146.431C215.81 146.555 215.896 146.654 216.003 146.715C216.109 146.777 216.237 146.802 216.367 146.777L219.189 146.233C220.445 145.99 221.747 146.21 222.854 146.849L226.271 148.822C226.278 148.826 226.282 148.834 226.29 148.839C226.625 149.032 226.856 149.36 226.925 149.74C226.993 150.12 226.892 150.508 226.647 150.807L226.647 150.807ZM228.33 144.606C227.672 144.515 227.052 144.428 226.023 143.834C224.993 143.239 224.608 142.746 224.201 142.222C223.748 141.642 223.28 141.043 222.073 140.346C220.867 139.65 220.114 139.545 219.387 139.443C218.73 139.352 218.109 139.265 217.082 138.671C216.053 138.078 215.668 137.584 215.26 137.06C214.808 136.481 214.34 135.882 213.133 135.185C211.927 134.489 211.175 134.384 210.447 134.281C209.79 134.19 209.17 134.104 208.142 133.51C207.114 132.917 206.73 132.423 206.322 131.9C205.87 131.321 205.403 130.722 204.197 130.025C202.991 129.329 202.238 129.224 201.511 129.122C200.854 129.031 200.234 128.945 199.206 128.351C198.178 127.758 197.794 127.264 197.386 126.741C196.995 126.24 196.593 125.724 195.711 125.143C196.034 124.736 196.774 124.152 198.289 124.287C198.309 124.3 198.328 124.314 198.348 124.326L229.926 142.558C229.976 142.587 230.028 142.61 230.078 142.635C230.658 143.788 230.601 144.701 230.473 145.22C229.571 144.78 228.942 144.692 228.329 144.606L228.33 144.606Z" fill="#E8BC90"/>
<path d="M59.9311 126.517C59.3454 127.046 59.2998 127.554 59.3927 127.901C59.6617 129.131 61.8845 129.96 63.0163 130.339C63.1565 131.541 63.6067 133.899 64.7695 134.393C65.1143 134.548 65.6134 134.601 66.2554 134.057C67.247 133.233 67.8323 132.023 67.9026 130.703C67.9173 130.079 67.8911 129.528 67.7362 128.95C69.6654 129.363 72.236 128.55 74.5534 126.566C76.0333 125.302 77.1374 123.766 77.6292 122.209C77.8548 121.467 77.9669 120.755 77.9251 120.146C79.5924 120.939 81.6083 120.771 83.1447 119.491C83.7303 118.962 83.776 118.454 83.683 118.108C83.414 116.878 81.1912 116.048 80.0594 115.67C79.9192 114.468 79.469 112.109 78.3063 111.616C78.1056 111.545 77.8482 111.491 77.509 111.581C77.2829 111.642 77.0719 111.76 76.82 111.952C75.3401 113.216 74.7871 115.224 75.3393 117.059C74.5678 116.894 73.6007 116.905 72.6393 117.162C71.2818 117.526 69.8479 118.282 68.5786 119.428C66.2612 121.412 65.0503 123.906 65.1499 125.862C64.6044 125.637 64.059 125.411 63.4471 125.389C62.8917 125.352 62.2949 125.388 61.786 125.524C61.1084 125.707 60.4759 126.062 59.9311 126.518L59.9311 126.517ZM77.6086 112.857C77.7064 112.769 77.8036 112.68 77.876 112.723C78.2772 112.864 78.7834 114.525 78.9189 116.163C78.9244 116.409 79.0993 116.61 79.3568 116.665C80.9312 117.111 82.4131 117.891 82.5215 118.296C82.5369 118.354 82.4392 118.442 82.3419 118.53C81.9513 118.882 81.417 119.15 80.9076 119.286C80.5115 119.392 80.1004 119.44 79.6578 119.373C78.6598 119.269 77.8108 118.815 77.1822 118.053C75.9255 116.53 76.0876 114.194 77.6085 112.857L77.6086 112.857ZM69.367 120.333C71.9208 118.099 75.1345 117.424 76.3193 118.904C76.86 119.565 76.9538 120.593 76.4972 121.831C76.0153 123.199 75.0344 124.516 73.7654 125.662C71.1551 127.91 67.998 128.57 66.7568 127.105C65.5876 125.683 66.7568 122.581 69.3671 120.333L69.367 120.333ZM65.8784 127.899C66.5069 128.66 66.8268 129.628 66.7353 130.644C66.6439 131.66 66.2077 132.521 65.4676 133.153C65.3698 133.241 65.3134 133.256 65.257 133.271L65.2005 133.286C64.7993 133.146 64.2932 131.484 64.1576 129.847C64.1521 129.601 63.9773 129.4 63.7198 129.345C62.1454 128.899 60.6635 128.118 60.5551 127.714C60.5396 127.656 60.6373 127.568 60.7347 127.48C61.4744 126.848 62.4208 126.532 63.4184 126.637C64.3441 126.699 65.2499 127.138 65.8785 127.899L65.8784 127.899Z" fill="#E8BC90"/>
<path d="M90.2136 6.07266C90.4564 5.32198 90.2419 4.85913 89.988 4.60522C89.1402 3.67486 86.8004 4.06772 85.631 4.30589C84.9087 3.33519 83.3394 1.51762 82.0856 1.6714C81.7093 1.70928 81.2508 1.91328 80.9669 2.70559C80.5198 3.91448 80.6181 5.25534 81.2174 6.434C81.5167 6.9816 81.8147 7.44541 82.2378 7.86847C80.3608 8.47583 78.5408 10.4647 77.5261 13.3419C76.8765 15.1767 76.688 17.0583 77.0408 18.653C77.2165 19.4086 77.4753 20.081 77.8159 20.5873C75.9756 20.7346 74.314 21.8882 73.6231 23.7644C73.3803 24.5151 73.5948 24.9779 73.8487 25.2318C74.6965 26.1622 77.0363 25.7693 78.2057 25.5311C78.928 26.5018 80.4972 28.3194 81.7511 28.1656C81.96 28.1262 82.2103 28.0449 82.4586 27.7965C82.6241 27.631 82.7477 27.423 82.87 27.1312C83.5196 25.2964 82.9947 23.2813 81.599 21.9683C82.3497 21.7255 83.1817 21.2324 83.8855 20.5286C84.8793 19.5349 85.7431 18.1632 86.2693 16.5361C87.2841 13.6589 87.0859 10.8938 86.0215 9.24941C86.6067 9.17208 87.1919 9.09475 87.7327 8.80781C88.2323 8.56221 88.7312 8.23278 89.1037 7.86022C89.5993 7.36346 89.9694 6.73943 90.2134 6.07258L90.2136 6.07266ZM81.7347 26.7419C81.694 26.867 81.6539 26.9921 81.5698 26.9912C81.1523 27.0703 79.883 25.8843 78.9471 24.5341C78.8192 24.3237 78.5671 24.2368 78.3166 24.3178C76.7302 24.719 75.0566 24.784 74.7605 24.4879C74.7182 24.4457 74.7586 24.3202 74.799 24.1954C74.9611 23.695 75.2902 23.1964 75.663 22.8235C75.953 22.5336 76.2849 22.2861 76.7018 22.1231C77.6183 21.7145 78.5807 21.6834 79.5058 22.0285C81.3557 22.7191 82.3834 24.8235 81.7348 26.7418L81.7347 26.7419ZM85.1341 16.1468C84.0393 19.3581 81.5938 21.5496 79.8277 20.8603C79.029 20.5583 78.4336 19.7145 78.2102 18.4144C77.9433 16.9883 78.1346 15.3578 78.6606 13.731C79.7968 10.4784 82.201 8.3282 84.0083 8.97624C85.7319 9.62312 86.2703 12.8942 85.1341 16.1468L85.1341 16.1468ZM84.3723 7.84991C83.4475 7.50506 82.6863 6.82649 82.2577 5.90107C81.8287 4.97536 81.7763 4.01204 82.1011 3.09434C82.1417 2.96923 82.183 2.92793 82.2243 2.88663L82.2656 2.84533C82.6832 2.76614 83.9524 3.95223 84.8884 5.30234C85.0163 5.51283 85.2684 5.59971 85.5189 5.51868C87.1052 5.11751 88.7788 5.05245 89.075 5.34861C89.1172 5.39083 89.0768 5.51624 89.0365 5.64106C88.712 6.55844 88.0501 7.30479 87.1339 7.71309C86.3013 8.12232 85.2973 8.19506 84.3722 7.84994L84.3723 7.84991Z" fill="#E8BC90"/>
<path d="M30.7231 189.895L25.5337 186.899L21.1658 194.465C20.4937 195.629 18.9639 196.039 17.7998 195.367C16.6357 194.695 16.2257 193.165 16.8978 192.001L21.2661 184.435L16.0767 181.439C14.9127 180.767 14.5236 179.314 15.1954 178.15L24.8554 161.419C27.8515 156.229 34.5066 154.446 39.6959 157.442C44.8852 160.438 46.6685 167.093 43.6724 172.283L34.0404 188.966C33.3685 190.129 31.8868 190.568 30.7228 189.896L30.7231 189.895ZM17.8681 192.561C17.5041 193.191 17.7296 194.033 18.3601 194.397C18.9907 194.761 19.8322 194.536 20.1962 193.905L24.5641 186.339L22.1877 184.967L17.8197 192.533L17.8681 192.561ZM42.7026 171.722C45.3907 167.066 43.7919 161.1 39.1361 158.412C34.4802 155.724 28.5134 157.322 25.8254 161.978L16.1934 178.661C15.8293 179.292 16.0345 180.057 16.6648 180.421L31.311 188.877C31.9416 189.241 32.7064 189.035 33.0703 188.405L42.7026 171.722Z" fill="#E8BC90"/>
<path d="M21.9598 179.986C20.7957 179.314 20.3857 177.784 21.0578 176.62L29.0938 162.701C29.7659 161.537 31.2957 161.127 32.4599 161.799C33.6239 162.471 34.0339 164.001 33.3618 165.165L25.3258 179.084C24.6534 180.248 23.172 180.686 21.9596 179.987L21.9598 179.986ZM32.3915 164.605C32.7556 163.975 32.5301 163.133 31.8995 162.769C31.269 162.405 30.4275 162.631 30.0635 163.261L22.0275 177.18C21.6634 177.811 21.8889 178.652 22.5194 179.016C23.15 179.38 23.9915 179.155 24.3555 178.524L32.3915 164.605Z" fill="#E8BC90"/>
<path d="M28.8463 183.962C27.6823 183.29 27.2723 181.76 27.9444 180.596L35.9804 166.677C36.6525 165.513 38.1823 165.103 39.3464 165.775C40.5105 166.447 40.9205 167.977 40.2484 169.141L32.2124 183.06C31.5403 184.224 30.0586 184.662 28.8461 183.962L28.8463 183.962ZM39.2781 168.581C39.6422 167.951 39.4167 167.109 38.7861 166.745C38.1556 166.381 37.3141 166.607 36.9501 167.237L28.9141 181.156C28.55 181.786 28.7755 182.628 29.406 182.992C30.0366 183.356 30.8781 183.131 31.2421 182.5L39.2781 168.581Z" fill="#E8BC90"/>
<path d="M28.6286 5.91089C27.9883 6.04191 27.4724 6.3877 27.0952 6.89137C26.7183 7.39554 26.6082 8.03156 26.7394 8.67136C26.8704 9.31162 27.2162 9.82753 27.7199 10.2048C27.9304 10.3215 28.1975 10.4539 28.4235 10.5144C28.7621 10.6051 29.1158 10.6396 29.4998 10.561C29.8123 10.5236 30.0161 10.2153 29.9787 9.90272C29.9414 9.59014 29.633 9.3864 29.3204 9.42376C29.0079 9.46112 28.6542 9.42669 28.4021 9.23804C28.1501 9.0494 27.9283 8.74814 27.8913 8.43566C27.8539 8.12307 27.8884 7.76937 28.077 7.51736C28.2657 7.26533 28.5669 7.04347 28.8794 7.0065C29.5196 6.87548 30.0356 6.5297 30.4128 6.02603C30.7897 5.52186 30.8998 4.88583 30.7686 4.24604C30.5065 2.96594 29.2881 2.09511 27.9514 2.3416C27.6388 2.37896 27.4351 2.68729 27.4725 2.99987C27.5098 3.31245 27.8181 3.51619 28.1307 3.47883C28.771 3.34781 29.4439 3.77036 29.5599 4.46693C29.6759 5.16309 29.2689 5.77986 28.6286 5.9109L28.6286 5.91089Z" fill="#E8BC90"/>
<path d="M33.7905 4.93434C33.1503 5.06536 32.6343 5.41114 32.2571 5.91481C31.8802 6.41898 31.7701 7.055 31.9013 7.6948C32.0849 8.59094 32.7953 9.32569 33.6418 9.55253C33.9804 9.64326 34.3341 9.67769 34.7181 9.5991C35.0307 9.56175 35.2344 9.25341 35.1971 8.94084C35.1597 8.62825 34.8514 8.42452 34.5388 8.46188C33.8985 8.5929 33.2256 8.17034 33.1096 7.47377C32.9786 6.83351 33.4011 6.16054 34.0977 6.04459C34.738 5.91357 35.2539 5.56778 35.6311 5.06411C36.008 4.55995 36.1181 3.92392 35.9869 3.28412C35.8559 2.64386 35.5101 2.12795 35.0065 1.75073C34.5023 1.37383 33.8663 1.26375 33.2265 1.3949C32.9139 1.43225 32.7102 1.74059 32.7475 2.05317C32.7849 2.36575 33.0932 2.56949 33.4058 2.53213C34.046 2.40111 34.719 2.82366 34.835 3.52023C34.853 4.13021 34.4308 4.80329 33.7906 4.93433L33.7905 4.93434Z" fill="#E8BC90"/>
<path d="M11.705 37.0094C12.6645 37.2665 13.7148 37.185 14.5891 36.6326C16.2351 35.6823 16.8926 33.6806 16.2133 31.9253L24.3009 27.256L25.8712 29.9757C26.3669 30.8344 27.1231 31.3999 27.9697 31.6268C28.8162 31.8536 29.8101 31.757 30.6126 31.2462C31.3999 30.7917 31.9653 30.0358 32.2073 29.1326C32.4493 28.2294 32.3376 27.2922 31.883 26.5048L30.3128 23.785L31.1715 23.2892C31.2428 23.248 31.258 23.1913 31.3298 23.1502L34.181 28.0887C34.5116 28.6613 35.0305 28.9818 35.5951 29.1331C36.1598 29.2844 36.7844 29.2099 37.342 28.9356C38.4153 28.3159 38.7934 26.9048 38.1739 25.831L35.3226 20.8926L36.2532 20.3553C36.3965 20.2726 36.4982 20.1184 36.5435 19.9491L38.2378 22.8836C38.7335 23.7422 39.4897 24.3078 40.3363 24.5346C41.1828 24.7614 42.1767 24.6648 42.9792 24.154C43.7665 23.6995 44.3319 22.9436 44.5739 22.0404C44.816 21.1372 44.7042 20.2 44.2496 19.4126L42.6794 16.6928C42.7357 16.7079 42.8075 16.6668 42.879 16.6252L43.8809 16.0467L46.7321 20.9851C47.0627 21.5578 47.5816 21.8783 48.1462 22.0296C48.7108 22.1808 49.3355 22.1064 49.8931 21.8321C50.9664 21.2124 51.3445 19.8013 50.725 18.7275L47.8737 13.7891L49.019 13.1279C49.0904 13.0866 49.1622 13.0451 49.1924 12.9325L50.8039 15.7238C51.2585 16.5111 52.0143 17.0765 52.9175 17.3185C53.8208 17.5605 54.758 17.4487 55.5454 16.9942C57.1913 16.0439 57.7661 13.8989 56.831 12.1961L55.2607 9.47636L59.6265 6.95578C59.9126 6.79062 60.0034 6.45161 59.8382 6.16556C59.6731 5.8795 59.3341 5.78866 59.048 5.95382L54.6822 8.4744L53.112 5.75461C52.1617 4.10863 50.0166 3.53387 48.3139 4.46898C47.5266 4.92352 46.9612 5.67936 46.7192 6.58258C46.4771 7.48581 46.5889 8.42302 47.0434 9.2104L48.655 12.0016C48.5987 11.9865 48.4706 12.0126 48.3991 12.0542L47.2538 12.7154L44.4026 7.77692C43.7829 6.70358 42.3718 6.32547 41.298 6.94505C40.2247 7.56474 39.8466 8.97584 40.4661 10.0496L43.3174 14.9881L42.3154 15.5666C42.244 15.6078 42.2288 15.6645 42.157 15.7056L40.5868 12.9858C40.1322 12.1985 39.3764 11.6331 38.4732 11.3911C37.5699 11.1491 36.6327 11.2609 35.8454 11.7154C34.1994 12.6657 33.6246 14.8107 34.5597 16.5134L36.2539 19.4479C36.0846 19.4026 35.9002 19.4135 35.757 19.4962L34.8264 20.0335L32.0212 14.9264C31.4015 13.8531 29.9904 13.475 28.9166 14.0945C27.8433 14.7142 27.4652 16.1253 28.0847 17.1991L30.936 22.1376C30.8797 22.1225 30.8079 22.1636 30.7364 22.2052L29.8777 22.701L28.3074 19.9812C27.8529 19.1939 27.097 18.6285 26.1938 18.3865C25.2906 18.1444 24.3534 18.2562 23.566 18.7108C21.92 19.6611 21.3453 21.8061 22.2804 23.5088L23.8506 26.2286L15.6913 30.9391C14.5112 29.4733 12.4488 29.0419 10.8025 29.9921C8.94176 31.0663 8.32163 33.3807 9.39593 35.2413C9.93319 36.1719 10.802 36.7676 11.7052 37.0096L11.705 37.0094ZM47.9343 6.78829C48.1007 6.16737 48.4776 5.66318 49.0351 5.38928C49.6077 5.05867 50.2323 4.98424 50.797 5.13554C51.3616 5.28683 51.8654 5.66361 52.196 6.23625L55.9147 12.6773C56.5759 13.8225 56.1978 15.2337 55.0678 15.8381C54.4952 16.1687 53.8705 16.2432 53.3059 16.0919C52.6849 15.9255 52.1808 15.5486 51.9069 14.9912L48.1881 8.55012C47.8424 8.0338 47.768 7.40914 47.9344 6.78819L47.9343 6.78829ZM42.0192 7.86536C42.3053 7.7002 42.6179 7.66284 42.9002 7.73848C43.1825 7.81413 43.4345 8.00277 43.5996 8.28883L49.8805 19.1676C50.2111 19.7402 50.0297 20.4174 49.4721 20.6917C48.8995 21.0223 48.2374 20.7846 47.948 20.2833L41.5957 9.44582C41.2651 8.8732 41.4466 8.1956 42.0192 7.86535L42.0192 7.86536ZM36.4536 12.6053C37.0262 12.2747 37.6508 12.2003 38.2155 12.3516C38.8364 12.518 39.3406 12.8949 39.6145 13.4523L43.3332 19.8934C43.6638 20.466 43.7383 21.0906 43.587 21.6553C43.4206 22.2762 43.0437 22.7804 42.4863 23.0543C41.341 23.7155 39.9299 23.3374 39.3254 22.2074L35.6067 15.7663C34.9871 14.6926 35.3652 13.2815 36.4536 12.6055L36.4536 12.6053ZM29.4945 15.0965C29.7805 14.9314 30.0931 14.894 30.3754 14.9697C30.6577 15.0453 30.9097 15.2339 31.0749 15.52L37.3558 26.3988C37.6864 26.9714 37.5049 27.6486 36.9474 27.9229C36.3898 28.1972 35.7126 28.0158 35.4232 27.5145L29.0861 16.6202C28.797 16.1195 28.9786 15.4419 29.4944 15.0965L29.4945 15.0965ZM24.0721 19.7538C24.6447 19.4232 25.2694 19.3488 25.834 19.5001C26.4549 19.6664 26.9591 20.0433 27.233 20.6008L30.9518 27.0418C31.2824 27.6144 31.3568 28.2391 31.2055 28.8038C31.0391 29.4247 30.6622 29.9289 30.1048 30.2028C28.9595 30.864 27.5484 30.4859 26.9439 29.3558L23.2252 22.9148C22.6055 21.8414 22.9988 20.3736 24.0721 19.7539L24.0721 19.7538ZM11.3809 30.9937C12.0249 30.6219 12.7631 30.5775 13.384 30.7439C14.0612 30.9253 14.6217 31.3173 14.9938 31.9618C15.7374 33.2498 15.2987 34.887 14.0107 35.6306C12.7227 36.3742 11.0856 35.9355 10.342 34.6475C9.65386 33.3744 10.0925 31.7373 11.3809 30.9938L11.3809 30.9937Z" fill="#E8BC90"/>
<path d="M131.641 179.52C131.284 179.52 130.927 179.52 130.57 179.58L124.023 167.34L123.785 167.46L122.952 167.46V181.2H124.082V169.8L129.379 179.7C127.951 180.06 126.82 180.78 126.046 181.74C125.332 181.56 124.618 181.5 123.904 181.5C119.738 181.5 117 183.9 117 187.68C117 191.76 120.095 195 123.904 195C125.928 195 127.832 194.04 129.142 192.42C129.915 192.78 130.808 192.96 131.701 192.96C135.51 192.96 138.604 189.72 138.604 185.7C138.545 181.92 135.807 179.52 131.641 179.52L131.641 179.52ZM123.904 193.8C120.75 193.8 118.132 191.1 118.132 187.74C118.132 184.08 121.107 182.76 123.904 182.76C124.44 182.76 124.916 182.82 125.392 182.88C125.273 183.06 125.214 183.24 125.154 183.48C125.154 183.48 125.154 183.54 125.094 183.54C125.035 183.72 124.975 183.9 124.975 184.08C124.975 184.14 124.975 184.2 124.916 184.26C124.856 184.44 124.856 184.62 124.856 184.8V184.98C124.856 185.22 124.797 185.46 124.797 185.7C124.797 186 124.797 186.3 124.856 186.6V186.78C124.916 187.02 124.916 187.26 124.975 187.5C124.975 187.56 124.975 187.56 125.035 187.62C125.273 188.52 125.63 189.3 126.165 190.02C126.701 190.74 127.356 191.4 128.07 191.88C126.999 193.14 125.511 193.8 123.904 193.8L123.904 193.8ZM131.641 191.76C130.748 191.76 129.915 191.52 129.141 191.16C128.665 190.92 128.189 190.62 127.832 190.2C127.058 189.42 126.463 188.46 126.166 187.38C126.106 187.14 126.047 186.9 125.987 186.66V186.48C125.928 186.24 125.928 185.94 125.928 185.7C125.928 185.46 125.928 185.22 125.987 184.92V184.8C126.047 184.56 126.047 184.38 126.106 184.14V184.08C126.225 183.6 126.463 183.18 126.701 182.82L126.88 182.58C128.011 181.2 129.856 180.66 131.641 180.66C134.438 180.66 137.414 181.98 137.414 185.64C137.414 189.06 134.795 191.76 131.641 191.76L131.641 191.76ZM133.188 170.82C135.271 170.82 136.819 170.16 137.83 168.84C139.616 166.44 138.842 162.719 138.782 162.6L138.664 162.18L138.247 162.12C137.83 162.06 137.295 162 136.759 162C129.855 162 126.761 168.36 126.642 168.6L126.344 169.2L126.94 169.44C129.379 170.34 131.462 170.82 133.189 170.82L133.188 170.82ZM136.759 163.2C137.116 163.2 137.414 163.2 137.771 163.26C137.89 164.22 138.128 166.5 136.938 168.06C135.509 169.92 132.415 170.1 127.951 168.54C128.903 167.04 131.76 163.2 136.759 163.2H136.759Z" fill="#E8BC90"/>
</svg>