<?xml version="1.0" encoding="UTF-8" standalone="no"?>
<svg
   version="1.1"
   width="11.693in"
   height="11.693in"
   viewBox="0 0 841.89701 841.89767"
   id="svg20"
   sodipodi:docname="chsu.svg"
   inkscape:version="1.3.2 (091e20e, 2023-11-25, custom)"
   xmlns:inkscape="http://www.inkscape.org/namespaces/inkscape"
   xmlns:sodipodi="http://sodipodi.sourceforge.net/DTD/sodipodi-0.dtd"
   xmlns="http://www.w3.org/2000/svg"
   xmlns:svg="http://www.w3.org/2000/svg">
  <defs
     id="defs20" />
  <sodipodi:namedview
     id="namedview20"
     pagecolor="#ffffff"
     bordercolor="#000000"
     borderopacity="0.25"
     inkscape:showpageshadow="2"
     inkscape:pageopacity="0.0"
     inkscape:pagecheckerboard="0"
     inkscape:deskcolor="#d1d1d1"
     inkscape:document-units="in"
     inkscape:zoom="0.51719844"
     inkscape:cx="532.67755"
     inkscape:cy="544.27851"
     inkscape:window-width="1920"
     inkscape:window-height="1017"
     inkscape:window-x="-8"
     inkscape:window-y="-8"
     inkscape:window-maximized="1"
     inkscape:current-layer="Layer1000" />
  <g
     id="Layer1000"
     transform="matrix(2.0076039,0,0,2.0076039,-136.95423,-129.97224)">
    <path
       d="m 277.70156,65.427665 c 39.37877,0 76.2015,10.933305 107.60451,29.926324 -49.77344,62.507241 -112.3104,139.921061 -157.90144,166.939931 1.45737,-5.30606 3.29488,-11.24356 5.3832,-17.53566 11.59552,-34.93829 31.18401,-76.39964 39.66399,-93.37213 4.45456,-7.4851 5.16735,-17.41465 2.38814,-25.5823 -5.52192,-16.19817 -23.4919,-25.21575 -39.83815,-19.6495 -11.4886,3.91697 -16.32954,12.08149 -20.98693,22.21962 -7.507,16.33269 -25.79818,57.40349 -37.22058,95.13716 -18.78914,62.07865 -20.54375,117.66132 41.12868,104.03797 27.03394,-5.97139 57.02387,-28.11123 87.25471,-57.83211 -18.3162,24.96754 -37.47191,49.96741 -56.98844,74.00785 -29.98678,36.93693 -60.75156,71.53838 -90.48704,100.13454 -53.37599,-37.70238 -88.234505,-99.87852 -88.234505,-170.19622 0,-115.00517 93.230305,-208.235475 208.233855,-208.235475 z M 445.4356,150.25985 c 25.45195,34.53627 40.50297,77.20942 40.50297,123.40329 0,115.0067 -93.23031,208.2344 -208.23701,208.2344 -21.94326,0 -43.09291,-3.40284 -62.95668,-9.69492 20.61202,-22.02616 41.12866,-46.20426 61.09309,-71.38142 55.87833,-70.46527 107.86732,-149.21082 145.12388,-209.97391 7.17276,-11.70033 15.71323,-25.72883 24.47375,-40.58744 z"
       style="fill:#e30016;fill-rule:evenodd;stroke-width:5.21428"
       id="path5" />
  </g>
</svg>
